<svg xmlns="http://www.w3.org/2000/svg" xmlns:xlink="http://www.w3.org/1999/xlink" width="1024" zoomAndPan="magnify" viewBox="0 0 768 767.999994" height="1024" preserveAspectRatio="xMidYMid meet" version="1.0"><defs><clipPath id="e68c50235c"><path d="M 102 159.292969 L 665 159.292969 L 665 427 L 102 427 Z M 102 159.292969 " clip-rule="nonzero"/></clipPath><clipPath id="468cc88581"><path d="M 479 188 L 694.734375 188 L 694.734375 580 L 479 580 Z M 479 188 " clip-rule="nonzero"/></clipPath><clipPath id="8c73054f41"><path d="M 102 398 L 665 398 L 665 608.542969 L 102 608.542969 Z M 102 398 " clip-rule="nonzero"/></clipPath><clipPath id="c23919bc11"><path d="M 299 314 L 469 314 L 469 480.210938 L 299 480.210938 Z M 299 314 " clip-rule="nonzero"/></clipPath></defs><path fill="#000000" d="M 288.480469 383.972656 L 87.660156 188.578125 C 78.605469 200.695312 73.234375 215.726562 73.234375 231.980469 L 73.234375 535.964844 C 73.234375 552.21875 78.605469 567.25 87.660156 579.367188 L 288.480469 383.972656 " fill-opacity="1" fill-rule="nonzero"/><g clip-path="url(#e68c50235c)"><path fill="#000000" d="M 348.121094 412.152344 C 368.160156 431.652344 399.558594 431.652344 419.597656 412.152344 L 664.878906 173.5 C 652.824219 164.605469 637.941406 159.332031 621.839844 159.332031 L 145.878906 159.332031 C 129.777344 159.332031 114.894531 164.605469 102.84375 173.5 L 348.121094 412.152344 " fill-opacity="1" fill-rule="nonzero"/></g><g clip-path="url(#468cc88581)"><path fill="#000000" d="M 680.058594 188.578125 L 479.238281 383.972656 L 680.058594 579.367188 C 689.113281 567.25 694.484375 552.21875 694.484375 535.964844 L 694.484375 231.980469 C 694.484375 215.726562 689.113281 200.695312 680.058594 188.578125 " fill-opacity="1" fill-rule="nonzero"/></g><g clip-path="url(#8c73054f41)"><path fill="#000000" d="M 463.898438 398.894531 L 434.515625 427.484375 C 420.878906 440.753906 402.890625 448.0625 383.859375 448.0625 C 364.828125 448.0625 346.839844 440.753906 333.203125 427.484375 L 303.820312 398.894531 L 102.84375 594.445312 C 114.894531 603.339844 129.777344 608.613281 145.878906 608.613281 L 621.839844 608.613281 C 637.941406 608.613281 652.824219 603.339844 664.878906 594.445312 L 463.898438 398.894531 " fill-opacity="1" fill-rule="nonzero"/></g><g clip-path="url(#c23919bc11)"><path fill="#ffffff" d="M 453.683594 325.710938 C 453.683594 325.710938 410.773438 287.574219 384 355.097656 C 357.222656 287.574219 314.3125 325.710938 314.3125 325.710938 C 258.214844 373.394531 378.5625 475.914062 383.898438 480.417969 L 383.898438 480.589844 C 383.898438 480.589844 383.933594 480.558594 384 480.503906 C 384.066406 480.558594 384.097656 480.589844 384.097656 480.589844 L 384.097656 480.417969 C 389.4375 475.914062 509.785156 373.394531 453.683594 325.710938 Z M 453.683594 325.710938 " fill-opacity="1" fill-rule="nonzero"/></g></svg>