<svg xmlns="http://www.w3.org/2000/svg" xmlns:xlink="http://www.w3.org/1999/xlink" width="1024" zoomAndPan="magnify" viewBox="0 0 768 767.999994" height="1024" preserveAspectRatio="xMidYMid meet" version="1.0"><defs><clipPath id="6001827b6e"><path d="M 139 173 L 628 173 L 628 661.0625 L 139 661.0625 Z M 139 173 " clip-rule="nonzero"/></clipPath><clipPath id="259f246ad4"><path d="M 358 106.8125 L 560 106.8125 L 560 272 L 358 272 Z M 358 106.8125 " clip-rule="nonzero"/></clipPath><clipPath id="1534d21f23"><path d="M 243.40625 445.324219 L 270.777344 445.324219 L 270.777344 473.21875 L 243.40625 473.21875 Z M 243.40625 445.324219 " clip-rule="nonzero"/></clipPath><clipPath id="5324de063b"><path d="M 270.675781 455.101562 C 270.675781 463.875 269.625 466.125 268.351562 467.773438 C 267 469.5 265.050781 471 263.101562 471.898438 C 261.148438 472.800781 258.75 473.25 256.574219 473.101562 C 254.398438 472.949219 252.074219 472.199219 250.199219 471.148438 C 248.398438 470.023438 246.675781 468.300781 245.550781 466.425781 C 244.425781 464.550781 243.675781 462.226562 243.523438 460.050781 C 243.449219 457.949219 243.898438 455.476562 244.726562 453.523438 C 245.625 451.574219 247.125 449.625 248.851562 448.351562 C 250.574219 447 252.824219 445.949219 254.925781 445.574219 C 257.023438 445.199219 259.5 445.351562 261.523438 446.023438 C 263.625 446.625 267.226562 449.476562 267.226562 449.476562 " clip-rule="nonzero"/></clipPath><clipPath id="f25150dabc"><path d="M 251 448.101562 L 278.21875 448.101562 L 278.21875 475.863281 L 251 475.863281 Z M 251 448.101562 " clip-rule="nonzero"/></clipPath><clipPath id="1cbff0212e"><path d="M 278.175781 457.875 C 278.175781 466.574219 277.199219 468.824219 275.851562 470.550781 C 274.5 472.199219 272.625 473.773438 270.601562 474.675781 C 268.648438 475.5 266.25 475.949219 264.074219 475.800781 C 261.976562 475.726562 259.574219 474.976562 257.773438 473.851562 C 255.898438 472.726562 254.175781 471 253.050781 469.125 C 251.925781 467.324219 251.25 465 251.101562 462.824219 C 250.949219 460.648438 251.398438 458.25 252.300781 456.300781 C 253.199219 454.351562 254.699219 452.398438 256.351562 451.050781 C 258.074219 449.699219 260.324219 448.726562 262.425781 448.351562 C 264.523438 447.976562 267 448.125 269.101562 448.726562 C 271.125 449.398438 274.726562 452.175781 274.726562 452.175781 " clip-rule="nonzero"/></clipPath><clipPath id="60e61f7b19"><path d="M 493.90625 448.101562 L 521.144531 448.101562 L 521.144531 475.863281 L 493.90625 475.863281 Z M 493.90625 448.101562 " clip-rule="nonzero"/></clipPath><clipPath id="ad12a02cc4"><path d="M 521.101562 457.875 C 521.101562 466.574219 520.125 468.824219 518.773438 470.550781 C 517.425781 472.199219 515.550781 473.773438 513.523438 474.675781 C 511.574219 475.5 509.175781 475.949219 507 475.800781 C 504.898438 475.726562 502.5 474.976562 500.699219 473.851562 C 498.824219 472.726562 497.101562 471 495.976562 469.125 C 494.851562 467.324219 494.175781 465 494.023438 462.824219 C 493.875 460.648438 494.324219 458.25 495.226562 456.300781 C 496.125 454.351562 497.625 452.398438 499.273438 451.050781 C 501 449.699219 503.25 448.726562 505.351562 448.351562 C 507.449219 447.976562 509.925781 448.125 512.023438 448.726562 C 514.050781 449.398438 517.648438 452.175781 517.648438 452.175781 " clip-rule="nonzero"/></clipPath><clipPath id="0a62ca2a35"><path d="M 429.0625 326.425781 L 529 326.425781 L 529 399 L 429.0625 399 Z M 429.0625 326.425781 " clip-rule="nonzero"/></clipPath><clipPath id="8541ef053c"><path d="M 429.074219 332.175781 C 462 321.074219 464.25 329.101562 466.875 332.398438 C 468.601562 334.5 470.175781 337.425781 471.226562 337.648438 C 471.675781 337.800781 471.898438 337.351562 472.351562 337.199219 C 472.800781 336.898438 473.398438 336.449219 473.851562 336.300781 C 474.226562 336.148438 474.449219 336.148438 474.75 336.074219 C 475.050781 336 475.273438 335.773438 475.574219 335.699219 C 476.101562 335.625 476.851562 335.625 477.375 335.550781 C 477.75 335.476562 477.898438 335.550781 478.351562 335.324219 C 479.925781 334.800781 483.976562 331.800781 487.5 330.449219 C 491.699219 328.875 497.175781 327.375 502.050781 327.074219 C 506.851562 326.699219 512.398438 325.726562 516.449219 328.425781 C 522 332.023438 529.050781 345 528.976562 351.601562 C 528.898438 356.550781 524.699219 360.824219 521.625 364.574219 C 518.625 368.25 514.5 370.949219 510.675781 373.949219 C 506.773438 376.949219 502.125 380.023438 498.300781 382.574219 C 495.074219 384.675781 490.726562 386.550781 489.300781 388.273438 C 488.625 389.175781 488.925781 389.925781 488.476562 390.75 C 488.023438 391.726562 487.351562 392.773438 486.675781 393.675781 C 485.925781 394.5 485.101562 395.324219 484.199219 396 C 483.300781 396.675781 482.25 397.273438 481.199219 397.726562 C 480.226562 398.175781 479.101562 398.476562 477.976562 398.625 C 476.851562 398.851562 475.648438 398.851562 474.523438 398.773438 C 473.398438 398.699219 472.273438 398.476562 471.148438 398.101562 C 470.101562 397.726562 469.050781 397.199219 468.074219 396.601562 C 467.175781 396 466.273438 395.25 465.449219 394.425781 C 464.699219 393.675781 463.949219 392.699219 463.425781 391.726562 C 462.898438 390.824219 462.976562 389.699219 462.300781 389.023438 C 461.398438 388.273438 459.675781 388.800781 458.023438 387.824219 C 454.574219 385.800781 447.601562 379.351562 444.300781 374.476562 C 441.375 370.199219 440.550781 365.25 438.601562 360.601562 C 436.574219 355.875 434.175781 351.074219 432.601562 346.273438 C 431.023438 341.625 429.074219 332.175781 429.074219 332.175781 " clip-rule="nonzero"/></clipPath><clipPath id="d67d0d35d3"><path d="M 434.355469 320.824219 L 461.59375 320.824219 L 461.59375 348.589844 L 434.355469 348.589844 Z M 434.355469 320.824219 " clip-rule="nonzero"/></clipPath><clipPath id="f2ffbc5a03"><path d="M 461.550781 330.601562 C 461.625 339.300781 460.574219 341.550781 459.226562 343.273438 C 457.949219 344.925781 456 346.5 454.050781 347.324219 C 452.101562 348.226562 449.625 348.675781 447.523438 348.523438 C 445.351562 348.449219 443.023438 347.699219 441.148438 346.574219 C 439.273438 345.449219 437.550781 343.726562 436.425781 341.851562 C 435.375 340.050781 434.625 337.648438 434.476562 335.550781 C 434.324219 333.375 434.773438 330.976562 435.675781 329.023438 C 436.574219 327.074219 438.074219 325.125 439.800781 323.773438 C 441.449219 322.425781 443.699219 321.449219 445.800781 321.074219 C 447.976562 320.699219 450.375 320.851562 452.476562 321.449219 C 454.5 322.125 458.175781 324.898438 458.175781 324.898438 " clip-rule="nonzero"/></clipPath><clipPath id="91489797a2"><path d="M 433.679688 316.699219 L 460.921875 316.699219 L 460.921875 344.59375 L 433.679688 344.59375 Z M 433.679688 316.699219 " clip-rule="nonzero"/></clipPath><clipPath id="ca10fd4b4b"><path d="M 460.875 326.476562 C 460.875 335.25 459.898438 337.5 458.550781 339.148438 C 457.273438 340.875 455.324219 342.375 453.375 343.273438 C 451.351562 344.101562 448.949219 344.550781 446.773438 344.476562 C 444.675781 344.324219 442.273438 343.574219 440.476562 342.449219 C 438.601562 341.324219 436.875 339.601562 435.75 337.800781 C 434.625 335.925781 433.949219 333.601562 433.800781 331.425781 C 433.648438 329.324219 434.101562 326.851562 435 324.898438 C 435.898438 322.949219 437.398438 321 439.125 319.648438 C 440.773438 318.375 443.023438 317.324219 445.125 316.949219 C 447.226562 316.574219 449.699219 316.726562 451.800781 317.324219 C 453.824219 318 457.425781 320.773438 457.425781 320.773438 " clip-rule="nonzero"/></clipPath><clipPath id="21273eed3f"><path d="M 238.6875 317.425781 L 340 317.425781 L 340 397 L 238.6875 397 Z M 238.6875 317.425781 " clip-rule="nonzero"/></clipPath><clipPath id="b0846ab7b8"><path d="M 238.726562 343.199219 C 252 326.324219 259.351562 326.175781 264.226562 327.449219 C 268.726562 328.648438 273.148438 333.300781 276.074219 335.625 C 278.023438 337.125 279.601562 339.675781 280.648438 339.601562 C 281.324219 339.601562 281.550781 338.550781 282.148438 338.023438 C 282.824219 337.5 283.726562 337.425781 284.699219 336.675781 C 286.648438 335.25 289.125 331.800781 292.351562 329.324219 C 296.773438 325.875 303.976562 320.699219 309.675781 318.976562 C 314.550781 317.550781 319.648438 316.648438 324.148438 318.449219 C 329.699219 320.699219 337.726562 328.5 339.375 333.976562 C 340.726562 338.398438 337.648438 343.273438 336.601562 347.851562 C 335.476562 352.351562 334.800781 356.851562 332.773438 361.273438 C 330.675781 366 327.898438 371.773438 323.851562 375.226562 C 319.800781 378.75 308.699219 381.824219 308.476562 382.199219 C 308.550781 382.425781 308.398438 384.523438 308.175781 385.648438 C 307.949219 386.699219 307.574219 387.824219 307.050781 388.875 C 306.523438 389.851562 305.925781 390.824219 305.175781 391.726562 C 304.5 392.550781 303.601562 393.375 302.699219 394.050781 C 301.800781 394.726562 300.75 395.25 299.699219 395.699219 C 298.648438 396.148438 297.523438 396.449219 296.398438 396.601562 C 295.351562 396.75 294.148438 396.824219 293.023438 396.675781 C 291.898438 396.601562 290.773438 396.300781 289.726562 396 C 288.601562 395.625 286.648438 394.425781 286.648438 394.425781 C 286.648438 394.425781 280.875 390.601562 277.574219 388.574219 C 273.75 386.25 268.875 384.148438 264.898438 381.449219 C 260.925781 378.75 257.324219 376.050781 253.726562 372.449219 C 249.449219 368.101562 243.898438 362.175781 241.425781 356.851562 C 239.398438 352.351562 238.726562 343.199219 238.726562 343.199219 " clip-rule="nonzero"/></clipPath><clipPath id="7e22b09f41"><path d="M 372 150.125 L 474.847656 150.125 L 474.847656 255.976562 L 372 255.976562 Z M 372 150.125 " clip-rule="nonzero"/></clipPath><clipPath id="5474c79ef4"><path d="M 372 168.226562 C 372 165.601562 372 164.25 372 164.25 C 372 164.25 372.375 162.976562 372.523438 162.375 C 372.675781 161.699219 372.976562 160.5 372.976562 160.425781 C 373.050781 160.425781 373.648438 159.300781 373.949219 158.699219 C 374.25 158.175781 374.851562 156.976562 374.925781 156.976562 C 374.925781 156.976562 375.75 156 376.199219 155.550781 C 376.648438 155.023438 377.550781 154.125 377.550781 154.050781 C 377.550781 154.050781 378.601562 153.375 379.199219 153 C 379.726562 152.625 380.773438 151.875 380.773438 151.875 C 380.851562 151.875 382.050781 151.425781 382.648438 151.199219 C 383.25 150.976562 384.449219 150.523438 384.523438 150.523438 C 384.523438 150.523438 385.800781 150.375 386.476562 150.300781 C 387.148438 150.226562 388.425781 150.148438 388.425781 150.148438 C 388.425781 150.148438 389.699219 150.300781 390.375 150.375 C 391.050781 150.449219 392.324219 150.601562 392.324219 150.675781 C 392.324219 150.675781 393.523438 151.125 394.125 151.351562 C 394.800781 151.574219 396 152.101562 396 152.101562 C 396 152.101562 397.050781 152.851562 397.574219 153.226562 C 398.101562 153.601562 399.148438 154.351562 399.226562 154.351562 C 399.226562 154.425781 406.5 160.125 410.023438 163.199219 C 413.550781 166.425781 417.148438 169.800781 420.449219 173.324219 C 423.75 176.773438 428.023438 182.324219 429.824219 184.351562 C 430.574219 185.175781 430.726562 185.25 431.476562 185.925781 C 432.75 187.273438 435.449219 190.050781 437.175781 191.476562 C 438.449219 192.601562 439.949219 193.648438 440.699219 194.023438 C 441.074219 194.25 441.226562 194.175781 441.449219 194.324219 C 441.824219 194.550781 442.425781 195.226562 442.726562 195.375 C 442.875 195.375 442.875 195.300781 443.023438 195.300781 C 443.25 195.375 444 196.273438 444.300781 196.574219 C 444.449219 196.726562 444.449219 196.726562 444.601562 196.875 C 445.351562 197.398438 447.976562 198.75 449.699219 200.550781 C 452.476562 203.324219 458.625 213.074219 458.699219 213.148438 C 458.699219 213.148438 459.523438 214.050781 459.976562 214.5 C 460.425781 214.949219 461.25 215.773438 461.25 215.851562 C 461.324219 215.851562 462 217.050781 462.226562 217.425781 C 462.375 217.648438 462.375 217.726562 462.601562 218.023438 C 463.425781 219.449219 467.773438 226.050781 469.648438 229.050781 C 470.851562 231.074219 471.898438 232.726562 472.648438 234.226562 C 473.25 235.351562 473.773438 236.25 474.074219 237.300781 C 474.449219 238.425781 474.675781 239.550781 474.75 240.675781 C 474.824219 241.800781 474.75 243 474.601562 244.050781 C 474.375 245.175781 474 246.300781 473.550781 247.351562 C 473.101562 248.398438 472.5 249.375 471.824219 250.273438 C 471.148438 251.175781 470.324219 252 469.425781 252.675781 C 468.601562 253.425781 467.550781 254.023438 466.574219 254.476562 C 465.523438 254.925781 464.398438 255.300781 463.273438 255.523438 C 462.226562 255.75 461.023438 255.824219 459.898438 255.75 C 458.773438 255.675781 457.648438 255.449219 456.523438 255.148438 C 455.476562 254.851562 454.425781 254.324219 453.449219 253.800781 C 452.476562 253.199219 451.574219 252.523438 450.75 251.699219 C 449.925781 250.949219 448.648438 249.074219 448.648438 249.074219 C 448.648438 249.074219 446.476562 245.625 445.351562 243.976562 C 444.300781 242.324219 443.101562 239.925781 442.125 239.023438 C 441.601562 238.5 441.226562 238.425781 440.773438 238.125 C 440.25 237.824219 439.199219 237.148438 439.199219 237.148438 C 439.125 237.148438 439.125 237.148438 439.125 237.148438 C 439.050781 237 436.875 234.074219 435.148438 232.199219 C 432.675781 229.574219 425.851562 223.574219 425.25 223.125 C 425.175781 223.125 425.25 223.125 425.175781 223.050781 C 424.949219 222.976562 423.824219 222.523438 423.523438 222.300781 C 423.449219 222.148438 423.523438 222.074219 423.375 221.925781 C 423.148438 221.699219 422.550781 221.550781 422.175781 221.175781 C 421.5 220.574219 421.125 219.601562 420.148438 218.625 C 418.125 216.601562 413.175781 213.449219 409.949219 210.601562 C 406.875 207.898438 404.175781 204.675781 401.25 201.976562 C 398.398438 199.273438 395.398438 197.25 392.699219 194.476562 C 389.925781 191.550781 387.75 187.648438 384.976562 184.949219 C 382.5 182.476562 377.25 178.574219 377.175781 178.5 C 377.175781 178.5 376.351562 177.523438 375.898438 177 C 375.523438 176.550781 374.625 175.574219 374.625 175.574219 C 374.625 175.5 374.625 175.5 374.625 175.5 C 374.625 175.5 374.023438 174.375 373.726562 173.773438 C 373.425781 173.175781 372.898438 172.050781 372.824219 172.050781 C 372.824219 171.976562 372.523438 170.773438 372.375 170.101562 C 372.226562 169.5 372 168.226562 372 168.226562 " clip-rule="nonzero"/></clipPath><clipPath id="a5e29384c1"><path d="M 364 115 L 550.152344 115 L 550.152344 248 L 364 248 Z M 364 115 " clip-rule="nonzero"/></clipPath><clipPath id="340bc3ae8e"><path d="M 364.199219 154.875 C 367.648438 136.875 375.375 130.273438 375.375 130.199219 C 375.375 130.199219 375.449219 130.199219 375.375 130.199219 C 375.375 130.199219 375.824219 129.148438 375.976562 128.550781 C 376.199219 128.023438 376.574219 126.976562 376.574219 126.976562 C 376.648438 126.898438 377.25 126 377.550781 125.476562 C 377.925781 125.023438 378.523438 124.125 378.523438 124.050781 C 378.601562 124.050781 379.425781 123.300781 379.800781 122.925781 C 380.25 122.550781 381.074219 121.726562 381.148438 121.726562 C 381.148438 121.726562 382.125 121.199219 382.648438 120.898438 C 383.175781 120.675781 384.148438 120.148438 384.148438 120.074219 C 384.226562 120.074219 385.273438 119.851562 385.875 119.699219 C 386.398438 119.550781 387.523438 119.25 387.523438 119.25 C 387.523438 119.25 388.726562 119.25 389.25 119.25 C 389.851562 119.25 390.976562 119.175781 390.976562 119.175781 C 391.050781 119.175781 392.398438 119.550781 392.699219 119.625 C 392.851562 119.625 392.851562 119.699219 393 119.699219 C 393.523438 119.550781 395.023438 117.449219 396.976562 116.925781 C 400.800781 115.875 410.023438 116.476562 415.273438 118.351562 C 420.074219 120 423.523438 123.75 427.574219 126.898438 C 432 130.351562 436.574219 134.476562 440.699219 138.226562 C 444.601562 141.675781 448.800781 146.023438 451.875 148.574219 C 453.976562 150.148438 455.550781 152.550781 457.351562 152.25 C 459.601562 151.875 461.25 146.773438 463.800781 143.476562 C 467.175781 139.199219 471.375 132.75 475.800781 128.699219 C 479.851562 125.101562 484.351562 122.175781 488.925781 120 C 493.199219 118.050781 497.550781 116.851562 502.351562 116.023438 C 507.601562 115.125 513.824219 114.75 519.148438 115.273438 C 524.175781 115.726562 529.574219 116.101562 533.324219 118.574219 C 537.074219 121.050781 539.25 126 541.648438 129.976562 C 544.050781 134.023438 546.375 140.550781 547.875 142.800781 C 548.398438 143.699219 549 143.851562 549.300781 144.523438 C 549.601562 145.351562 549.226562 146.851562 549.449219 147.449219 C 549.601562 147.824219 549.898438 147.898438 549.976562 148.199219 C 549.976562 148.574219 549.601562 148.800781 549.523438 149.476562 C 549.300781 151.125 549.976562 156.75 549.976562 158.925781 C 550.050781 160.050781 549.976562 161.476562 549.976562 161.476562 C 549.976562 161.550781 549.824219 162.824219 549.75 163.5 C 549.675781 164.175781 549.523438 165.523438 549.523438 165.523438 C 549.523438 165.523438 549.074219 166.800781 548.773438 167.398438 C 548.550781 168.074219 548.101562 169.273438 548.101562 169.351562 C 548.101562 169.351562 547.351562 170.398438 546.898438 171 C 546.523438 171.523438 545.773438 172.648438 545.773438 172.648438 C 545.773438 172.648438 544.800781 173.550781 544.273438 174 C 543.75 174.449219 542.773438 175.351562 542.773438 175.351562 C 542.699219 175.351562 541.425781 176.023438 540.976562 176.324219 C 540.601562 176.476562 540.449219 176.398438 540.074219 176.773438 C 538.726562 178.050781 535.726562 184.425781 533.398438 188.324219 C 530.925781 192.375 528.523438 196.574219 525.675781 200.550781 C 522.675781 204.523438 519.300781 208.273438 515.851562 212.023438 C 512.324219 215.699219 509.023438 219.449219 504.898438 222.824219 C 500.476562 226.425781 490.726562 232.800781 490.125 232.648438 C 490.050781 232.648438 490.050781 232.574219 490.050781 232.574219 C 489.976562 232.574219 489.898438 233.324219 489.824219 233.851562 C 489.75 234.375 489.523438 235.800781 489.523438 235.800781 C 489.523438 235.800781 489 237 488.773438 237.601562 C 488.550781 238.273438 488.023438 239.476562 488.023438 239.476562 C 488.023438 239.476562 487.199219 240.523438 486.824219 241.125 C 486.449219 241.648438 485.625 242.699219 485.625 242.699219 C 485.625 242.699219 484.648438 243.523438 484.125 243.976562 C 483.601562 244.425781 482.625 245.25 482.550781 245.25 C 482.550781 245.25 481.351562 245.851562 480.75 246.148438 C 480.148438 246.449219 479.023438 246.976562 478.949219 246.976562 C 478.949219 246.976562 477.675781 247.273438 477 247.425781 C 476.398438 247.574219 475.125 247.800781 475.050781 247.875 C 475.050781 247.875 473.773438 247.800781 473.101562 247.800781 C 472.425781 247.726562 471.148438 247.726562 471.074219 247.726562 C 471.074219 247.726562 469.800781 247.351562 469.199219 247.199219 C 468.523438 246.976562 467.25 246.675781 467.25 246.675781 C 467.25 246.601562 465.300781 245.550781 464.023438 244.351562 C 461.324219 241.800781 457.351562 235.050781 453.523438 230.550781 C 449.625 225.824219 444.449219 221.476562 440.851562 216.75 C 437.476562 212.476562 435.074219 207.898438 432.300781 203.476562 C 429.675781 199.199219 427.648438 194.398438 424.726562 190.5 C 421.875 186.75 418.800781 183.074219 414.898438 180.375 C 410.851562 177.523438 404.625 176.699219 400.5 174.148438 C 396.976562 171.898438 392.25 166.351562 391.425781 166.425781 C 391.199219 166.5 391.351562 166.726562 391.125 166.800781 C 389.699219 167.476562 375.824219 169.574219 371.324219 167.023438 C 367.5 164.851562 364.199219 154.875 364.199219 154.875 " clip-rule="nonzero"/></clipPath></defs><g clip-path="url(#6001827b6e)"><path fill="#000000" d="M 383.777344 661.0625 C 249.355469 661.0625 139.933594 551.640625 139.933594 416.894531 C 139.933594 285.71875 242.535156 178.570312 373.710938 173.050781 C 375.984375 173.050781 377.605469 174.023438 378.90625 175.648438 C 379.554688 176.296875 380.53125 177.273438 381.179688 177.921875 L 458.78125 255.523438 L 504.238281 210.390625 C 506.183594 208.117188 509.433594 207.792969 512.03125 209.417969 C 584.761719 254.222656 627.945312 331.824219 627.945312 416.894531 C 627.945312 551.640625 518.523438 661.0625 383.777344 661.0625 Z M 371.113281 186.363281 C 248.378906 192.855469 152.921875 293.511719 152.921875 416.894531 C 152.921875 544.175781 256.496094 648.074219 383.777344 648.074219 C 511.378906 648.074219 614.957031 544.175781 614.957031 416.894531 C 614.957031 337.996094 575.667969 265.914062 509.757812 223.054688 L 463.324219 269.160156 C 461.054688 271.757812 456.507812 271.757812 454.234375 269.160156 L 372.085938 187.011719 C 371.761719 186.6875 371.4375 186.6875 371.113281 186.363281 Z M 371.113281 186.363281 " fill-opacity="1" fill-rule="evenodd"/></g><path fill="#000000" d="M 383.777344 621.453125 C 271.109375 621.453125 179.21875 529.5625 179.21875 416.894531 C 179.21875 304.226562 271.109375 212.339844 383.777344 212.339844 C 394.816406 212.339844 405.855469 213.3125 416.570312 214.9375 C 417.867188 215.261719 419.167969 215.910156 420.140625 216.882812 L 458.78125 255.523438 L 475.339844 238.964844 C 477.289062 237.015625 480.535156 236.691406 483.132812 237.988281 C 548.070312 274.03125 588.332031 342.539062 588.332031 416.894531 C 588.332031 529.5625 496.769531 621.453125 383.777344 621.453125 Z M 383.777344 225.328125 C 278.25 225.328125 192.207031 311.371094 192.207031 416.894531 C 192.207031 522.421875 278.25 608.464844 383.777344 608.464844 C 489.625 608.464844 575.34375 522.421875 575.34375 416.894531 C 575.34375 349.035156 539.304688 286.042969 480.859375 251.625 L 463.324219 269.160156 C 462.027344 270.457031 460.402344 271.109375 458.78125 271.109375 C 457.15625 271.109375 455.535156 270.457031 454.234375 269.160156 L 412.347656 227.597656 C 402.933594 225.976562 393.515625 225.328125 383.777344 225.328125 Z M 383.777344 225.328125 " fill-opacity="1" fill-rule="evenodd"/><path fill="#000000" d="M 383.777344 525.019531 C 357.800781 525.019531 333.449219 513.003906 316.890625 492.222656 C 314.617188 489.300781 314.941406 485.40625 317.863281 483.132812 C 320.785156 480.859375 324.683594 481.183594 326.957031 484.105469 C 340.917969 501.964844 361.699219 512.03125 383.777344 512.03125 C 405.855469 512.03125 426.636719 501.964844 440.921875 484.105469 C 443.195312 481.183594 447.089844 480.859375 450.015625 483.132812 C 452.609375 485.40625 453.261719 489.300781 450.988281 492.222656 C 434.429688 513.003906 410.078125 525.019531 383.777344 525.019531 Z M 383.777344 525.019531 " fill-opacity="1" fill-rule="evenodd"/><path fill="#000000" d="M 297.082031 410.078125 C 295.785156 410.078125 294.160156 409.75 293.1875 408.777344 L 241.5625 368.515625 C 235.390625 363.96875 231.496094 356.828125 230.523438 349.035156 C 229.546875 341.242188 231.820312 333.773438 236.691406 327.605469 C 242.210938 320.460938 250.652344 316.242188 259.742188 316.242188 C 266.238281 316.242188 272.40625 318.511719 277.601562 322.410156 L 287.992188 330.527344 L 296.433594 320.136719 C 301.953125 312.992188 310.394531 308.773438 319.488281 308.773438 C 325.980469 308.773438 332.148438 311.046875 337.34375 314.941406 C 343.515625 319.8125 347.410156 326.628906 348.386719 334.421875 C 349.359375 342.214844 347.085938 350.007812 342.539062 356.175781 L 302.277344 407.804688 C 301.304688 409.101562 299.679688 410.078125 298.058594 410.078125 C 297.734375 410.078125 297.410156 410.078125 297.082031 410.078125 Z M 259.742188 329.226562 C 254.550781 329.226562 250.003906 331.5 246.757812 335.398438 C 244.160156 338.96875 242.859375 343.191406 243.507812 347.410156 C 244.160156 351.957031 246.105469 355.851562 249.679688 358.449219 L 296.109375 394.492188 L 332.148438 348.058594 C 334.746094 344.8125 336.046875 340.59375 335.398438 336.046875 C 335.074219 331.824219 332.800781 327.929688 329.226562 325.332031 C 326.628906 323.058594 323.058594 321.761719 319.488281 321.761719 C 314.292969 321.761719 309.746094 324.03125 306.5 328.253906 L 294.484375 343.839844 C 293.1875 345.136719 291.886719 346.113281 289.941406 346.113281 C 288.316406 346.4375 286.695312 345.789062 285.394531 344.8125 L 269.484375 332.800781 C 266.886719 330.527344 263.316406 329.226562 259.742188 329.226562 Z M 259.742188 329.226562 " fill-opacity="1" fill-rule="evenodd"/><path fill="#000000" d="M 470.46875 410.078125 C 470.46875 410.078125 470.144531 410.078125 469.820312 410.078125 C 468.195312 410.078125 466.574219 409.101562 465.597656 407.804688 L 425.335938 356.175781 C 420.464844 350.007812 418.519531 342.214844 419.492188 334.421875 C 420.464844 326.628906 424.363281 319.8125 430.53125 314.941406 C 435.726562 311.046875 441.894531 308.773438 448.390625 308.773438 C 457.480469 308.773438 465.921875 312.992188 471.445312 320.136719 L 479.5625 330.527344 L 490.277344 322.410156 C 495.46875 318.511719 501.640625 316.242188 508.132812 316.242188 C 517.226562 316.242188 525.667969 320.460938 531.1875 327.605469 C 541.253906 340.269531 538.980469 358.773438 525.992188 368.515625 L 474.691406 408.777344 C 473.390625 409.75 472.09375 410.078125 470.46875 410.078125 Z M 448.390625 321.761719 C 444.820312 321.761719 441.246094 323.058594 438.324219 325.332031 C 435.078125 327.929688 432.804688 331.824219 432.15625 336.046875 C 431.832031 340.59375 432.804688 344.8125 435.402344 348.058594 L 471.769531 394.492188 L 518.199219 358.449219 C 525.34375 352.929688 526.640625 342.539062 521.121094 335.398438 C 517.875 331.5 513.328125 329.226562 508.132812 329.226562 C 504.5625 329.226562 500.992188 330.527344 498.066406 332.800781 L 482.484375 344.8125 C 481.183594 345.789062 479.5625 346.4375 477.613281 346.113281 C 475.988281 346.113281 474.367188 345.136719 473.390625 343.839844 L 461.378906 328.253906 C 458.132812 324.03125 453.585938 321.761719 448.390625 321.761719 Z M 448.390625 321.761719 " fill-opacity="1" fill-rule="evenodd"/><path fill="#000000" d="M 259.742188 483.457031 C 245.78125 483.457031 234.417969 473.390625 234.417969 461.054688 C 234.417969 448.714844 245.78125 438.648438 259.742188 438.648438 C 274.03125 438.648438 285.394531 448.714844 285.394531 461.054688 C 285.394531 473.390625 274.03125 483.457031 259.742188 483.457031 Z M 259.742188 451.636719 C 253.25 451.636719 247.40625 455.859375 247.40625 461.054688 C 247.40625 466.25 253.25 470.46875 259.742188 470.46875 C 266.5625 470.46875 272.40625 466.25 272.40625 461.054688 C 272.40625 455.859375 266.5625 451.636719 259.742188 451.636719 Z M 259.742188 451.636719 " fill-opacity="1" fill-rule="evenodd"/><path fill="#000000" d="M 507.808594 483.457031 C 493.847656 483.457031 482.484375 473.390625 482.484375 461.054688 C 482.484375 448.714844 493.847656 438.648438 507.808594 438.648438 C 521.769531 438.648438 533.136719 448.714844 533.136719 461.054688 C 533.136719 473.390625 521.769531 483.457031 507.808594 483.457031 Z M 507.808594 451.636719 C 500.992188 451.636719 495.46875 455.859375 495.46875 461.054688 C 495.46875 466.25 500.992188 470.46875 507.808594 470.46875 C 514.628906 470.46875 520.148438 466.25 520.148438 461.054688 C 520.148438 455.859375 514.628906 451.636719 507.808594 451.636719 Z M 507.808594 451.636719 " fill-opacity="1" fill-rule="evenodd"/><g clip-path="url(#259f246ad4)"><path fill="#000000" d="M 458.78125 271.109375 C 457.15625 271.109375 455.535156 270.457031 454.234375 269.160156 L 372.085938 187.011719 C 362.996094 178.246094 358.125 166.558594 358.125 153.894531 C 358.125 141.230469 362.996094 129.542969 372.085938 120.449219 C 380.855469 111.683594 392.542969 106.8125 405.207031 106.8125 C 417.867188 106.8125 429.558594 111.683594 438.648438 120.449219 L 458.78125 140.90625 L 479.234375 120.449219 C 488.003906 111.683594 499.691406 106.8125 512.355469 106.8125 C 525.019531 106.8125 536.707031 111.683594 545.472656 120.449219 C 554.566406 129.542969 559.433594 141.230469 559.433594 153.894531 C 559.433594 166.558594 554.566406 178.246094 545.472656 187.011719 L 463.324219 269.160156 C 462.027344 270.457031 460.402344 271.109375 458.78125 271.109375 Z M 405.207031 119.800781 C 396.113281 119.800781 387.671875 123.375 381.179688 129.867188 C 374.683594 136.035156 371.113281 144.804688 371.113281 153.894531 C 371.113281 162.984375 374.683594 171.425781 381.179688 177.921875 L 458.78125 255.523438 L 536.382812 177.921875 C 542.875 171.425781 546.449219 162.984375 546.449219 153.894531 C 546.449219 144.804688 542.875 136.035156 536.382812 129.867188 C 529.886719 123.375 521.445312 119.800781 512.355469 119.800781 C 503.261719 119.800781 494.820312 123.375 488.328125 129.867188 L 463.324219 154.542969 C 462.027344 155.84375 460.402344 156.492188 458.78125 156.492188 C 457.15625 156.492188 455.535156 155.84375 454.234375 154.542969 L 429.234375 129.867188 C 423.0625 123.375 414.296875 119.800781 405.207031 119.800781 Z M 405.207031 119.800781 " fill-opacity="1" fill-rule="evenodd"/></g><g clip-path="url(#1534d21f23)"><g clip-path="url(#5324de063b)"><path fill="#000000" d="M 240.523438 442.574219 L 274.050781 442.574219 L 274.050781 476.101562 L 240.523438 476.101562 Z M 240.523438 442.574219 " fill-opacity="1" fill-rule="nonzero"/></g></g><g clip-path="url(#f25150dabc)"><g clip-path="url(#1cbff0212e)"><path fill="#000000" d="M 248.101562 445.351562 L 281.625 445.351562 L 281.625 478.875 L 248.101562 478.875 Z M 248.101562 445.351562 " fill-opacity="1" fill-rule="nonzero"/></g></g><g clip-path="url(#60e61f7b19)"><g clip-path="url(#ad12a02cc4)"><path fill="#000000" d="M 491.023438 445.351562 L 524.550781 445.351562 L 524.550781 478.875 L 491.023438 478.875 Z M 491.023438 445.351562 " fill-opacity="1" fill-rule="nonzero"/></g></g><g clip-path="url(#0a62ca2a35)"><g clip-path="url(#8541ef053c)"><path fill="#000000" d="M 426.074219 316.800781 L 531.960938 316.800781 L 531.960938 401.773438 L 426.074219 401.773438 Z M 426.074219 316.800781 " fill-opacity="1" fill-rule="nonzero"/></g></g><g clip-path="url(#d67d0d35d3)"><g clip-path="url(#f2ffbc5a03)"><path fill="#000000" d="M 431.476562 318.074219 L 465 318.074219 L 465 351.601562 L 431.476562 351.601562 Z M 431.476562 318.074219 " fill-opacity="1" fill-rule="nonzero"/></g></g><g clip-path="url(#91489797a2)"><g clip-path="url(#ca10fd4b4b)"><path fill="#000000" d="M 430.800781 313.949219 L 464.324219 313.949219 L 464.324219 347.476562 L 430.800781 347.476562 Z M 430.800781 313.949219 " fill-opacity="1" fill-rule="nonzero"/></g></g><g clip-path="url(#21273eed3f)"><g clip-path="url(#b0846ab7b8)"><path fill="#000000" d="M 235.726562 315.449219 L 342.320312 315.449219 L 342.320312 399.675781 L 235.726562 399.675781 Z M 235.726562 315.449219 " fill-opacity="1" fill-rule="nonzero"/></g></g><g clip-path="url(#7e22b09f41)"><g clip-path="url(#5474c79ef4)"><path fill="#000000" d="M 369 147.148438 L 477.824219 147.148438 L 477.824219 258.949219 L 369 258.949219 Z M 369 147.148438 " fill-opacity="1" fill-rule="nonzero"/></g></g><g clip-path="url(#a5e29384c1)"><g clip-path="url(#340bc3ae8e)"><path fill="#000000" d="M 361.199219 112.273438 L 552.859375 112.273438 L 552.859375 250.875 L 361.199219 250.875 Z M 361.199219 112.273438 " fill-opacity="1" fill-rule="nonzero"/></g></g></svg>