<svg xmlns="http://www.w3.org/2000/svg" xmlns:xlink="http://www.w3.org/1999/xlink" width="1024" zoomAndPan="magnify" viewBox="0 0 768 767.999994" height="1024" preserveAspectRatio="xMidYMid meet" version="1.0"><defs><clipPath id="5275c99151"><path d="M 167.1875 104.242188 L 600.6875 104.242188 L 600.6875 663.742188 L 167.1875 663.742188 Z M 167.1875 104.242188 " clip-rule="nonzero"/></clipPath><clipPath id="b965d149ea"><path d="M 257 355 L 511 355 L 511 603.46875 L 257 603.46875 Z M 257 355 " clip-rule="nonzero"/></clipPath><clipPath id="b2ea898461"><path d="M 299 411 L 469 411 L 469 576.75 L 299 576.75 Z M 299 411 " clip-rule="nonzero"/></clipPath></defs><g clip-path="url(#5275c99151)"><path fill="#000000" d="M 554.21875 320.457031 L 554.21875 274.554688 C 554.21875 180.664062 477.820312 104.242188 383.953125 104.242188 C 290.085938 104.242188 213.652344 180.644531 213.652344 274.554688 L 213.652344 320.457031 C 187.945312 321.15625 167.292969 342.101562 167.292969 367.984375 L 167.292969 616.082031 C 167.292969 617.640625 167.367188 619.199219 167.519531 620.753906 C 167.671875 622.304688 167.902344 623.847656 168.207031 625.378906 C 168.511719 626.910156 168.890625 628.421875 169.34375 629.914062 C 169.792969 631.410156 170.320312 632.875 170.917969 634.320312 C 171.515625 635.761719 172.179688 637.171875 172.914062 638.546875 C 173.652344 639.921875 174.453125 641.261719 175.320312 642.558594 C 176.1875 643.855469 177.113281 645.109375 178.105469 646.316406 C 179.09375 647.523438 180.140625 648.675781 181.242188 649.78125 C 182.347656 650.886719 183.5 651.933594 184.707031 652.921875 C 185.914062 653.914062 187.164062 654.839844 188.464844 655.707031 C 189.761719 656.574219 191.097656 657.378906 192.472656 658.113281 C 193.851562 658.847656 195.257812 659.515625 196.699219 660.113281 C 198.140625 660.710938 199.609375 661.234375 201.101562 661.6875 C 202.597656 662.140625 204.109375 662.519531 205.636719 662.824219 C 207.167969 663.128906 208.710938 663.359375 210.261719 663.511719 C 211.816406 663.664062 213.371094 663.742188 214.933594 663.742188 L 552.945312 663.742188 C 554.507812 663.742188 556.0625 663.664062 557.617188 663.511719 C 559.167969 663.359375 560.710938 663.132812 562.242188 662.828125 C 563.773438 662.523438 565.285156 662.144531 566.777344 661.691406 C 568.269531 661.238281 569.738281 660.710938 571.179688 660.113281 C 572.621094 659.515625 574.03125 658.851562 575.40625 658.113281 C 576.785156 657.378906 578.121094 656.578125 579.417969 655.710938 C 580.714844 654.84375 581.96875 653.914062 583.171875 652.925781 C 584.378906 651.933594 585.535156 650.886719 586.636719 649.785156 C 587.742188 648.679688 588.789062 647.523438 589.777344 646.320312 C 590.769531 645.113281 591.695312 643.859375 592.5625 642.5625 C 593.429688 641.265625 594.234375 639.925781 594.96875 638.550781 C 595.703125 637.175781 596.371094 635.765625 596.96875 634.324219 C 597.566406 632.878906 598.089844 631.414062 598.542969 629.917969 C 598.996094 628.425781 599.375 626.914062 599.679688 625.382812 C 599.984375 623.851562 600.214844 622.308594 600.367188 620.757812 C 600.519531 619.203125 600.59375 617.644531 600.597656 616.085938 L 600.597656 367.984375 C 600.597656 342.097656 579.929688 321.148438 554.21875 320.457031 Z M 422.917969 457.746094 C 422.703125 459.226562 421.878906 462.59375 421.800781 462.851562 C 418.890625 472.933594 411.941406 481.210938 402.910156 486.25 L 418.207031 551.472656 C 418.316406 551.808594 418.410156 552.148438 418.480469 552.496094 C 418.550781 552.839844 418.601562 553.1875 418.628906 553.542969 C 418.660156 553.894531 418.667969 554.246094 418.65625 554.597656 C 418.648438 554.949219 418.617188 555.300781 418.5625 555.652344 C 418.511719 556 418.4375 556.34375 418.347656 556.6875 C 418.253906 557.027344 418.140625 557.359375 418.011719 557.6875 C 417.878906 558.015625 417.730469 558.335938 417.558594 558.644531 C 417.390625 558.957031 417.207031 559.253906 417.003906 559.542969 C 416.796875 559.832031 416.578125 560.105469 416.34375 560.371094 C 416.105469 560.632812 415.855469 560.878906 415.59375 561.113281 C 415.328125 561.347656 415.050781 561.566406 414.761719 561.765625 C 414.46875 561.96875 414.167969 562.152344 413.855469 562.316406 C 413.546875 562.484375 413.226562 562.628906 412.898438 562.757812 C 412.566406 562.886719 412.234375 562.996094 411.890625 563.085938 C 411.550781 563.175781 411.203125 563.242188 410.855469 563.292969 C 410.503906 563.34375 410.15625 563.371094 409.800781 563.378906 L 359.121094 563.378906 C 358.769531 563.371094 358.417969 563.34375 358.066406 563.292969 C 357.71875 563.242188 357.371094 563.175781 357.03125 563.085938 C 356.6875 562.996094 356.355469 562.886719 356.023438 562.757812 C 355.695312 562.628906 355.375 562.484375 355.066406 562.316406 C 354.753906 562.152344 354.453125 561.96875 354.164062 561.765625 C 353.871094 561.566406 353.59375 561.347656 353.332031 561.113281 C 353.066406 560.878906 352.816406 560.632812 352.578125 560.371094 C 352.34375 560.105469 352.125 559.832031 351.921875 559.542969 C 351.71875 559.253906 351.53125 558.957031 351.363281 558.644531 C 351.195312 558.335938 351.042969 558.015625 350.914062 557.6875 C 350.78125 557.359375 350.667969 557.027344 350.578125 556.6875 C 350.484375 556.34375 350.414062 556 350.359375 555.652344 C 350.308594 555.300781 350.277344 554.949219 350.265625 554.597656 C 350.253906 554.246094 350.265625 553.894531 350.292969 553.539062 C 350.324219 553.1875 350.375 552.839844 350.445312 552.496094 C 350.515625 552.148438 350.609375 551.808594 350.71875 551.472656 L 364.976562 486.25 C 355.941406 481.210938 348.992188 472.933594 346.085938 462.851562 C 346.011719 462.59375 345.179688 459.226562 344.96875 457.746094 C 344.699219 455.925781 344.566406 454.097656 344.5625 452.257812 C 344.5625 450.964844 344.625 449.679688 344.75 448.394531 C 344.878906 447.109375 345.066406 445.835938 345.316406 444.570312 C 345.570312 443.304688 345.882812 442.054688 346.253906 440.820312 C 346.628906 439.582031 347.0625 438.371094 347.554688 437.179688 C 348.050781 435.984375 348.601562 434.820312 349.207031 433.683594 C 349.816406 432.542969 350.476562 431.4375 351.195312 430.367188 C 351.910156 429.292969 352.679688 428.257812 353.496094 427.257812 C 354.316406 426.261719 355.179688 425.308594 356.089844 424.394531 C 357.003906 423.480469 357.957031 422.617188 358.957031 421.796875 C 359.953125 420.980469 360.988281 420.210938 362.058594 419.492188 C 363.132812 418.777344 364.238281 418.113281 365.375 417.503906 C 366.511719 416.898438 367.675781 416.347656 368.867188 415.851562 C 370.058594 415.359375 371.273438 414.925781 372.507812 414.550781 C 373.742188 414.175781 374.992188 413.859375 376.257812 413.609375 C 377.523438 413.359375 378.796875 413.167969 380.082031 413.042969 C 381.363281 412.914062 382.652344 412.851562 383.941406 412.851562 C 385.230469 412.851562 386.519531 412.914062 387.800781 413.042969 C 389.085938 413.167969 390.359375 413.359375 391.625 413.609375 C 392.890625 413.863281 394.140625 414.175781 395.375 414.550781 C 396.609375 414.925781 397.824219 415.359375 399.015625 415.851562 C 400.207031 416.347656 401.371094 416.898438 402.507812 417.503906 C 403.644531 418.113281 404.75 418.777344 405.824219 419.492188 C 406.894531 420.210938 407.929688 420.980469 408.929688 421.796875 C 409.925781 422.617188 410.878906 423.480469 411.792969 424.394531 C 412.703125 425.308594 413.570312 426.261719 414.386719 427.257812 C 415.207031 428.257812 415.972656 429.292969 416.6875 430.367188 C 417.40625 431.4375 418.066406 432.542969 418.675781 433.683594 C 419.28125 434.820312 419.832031 435.984375 420.328125 437.179688 C 420.820312 438.371094 421.253906 439.582031 421.628906 440.820312 C 422.003906 442.054688 422.316406 443.304688 422.566406 444.570312 C 422.816406 445.835938 423.007812 447.109375 423.132812 448.394531 C 423.257812 449.679688 423.320312 450.964844 423.320312 452.257812 C 423.320312 454.097656 423.183594 455.925781 422.917969 457.746094 Z M 496.078125 320.328125 L 271.796875 320.328125 L 271.796875 274.554688 C 271.796875 212.691406 322.089844 162.371094 383.953125 162.371094 C 445.816406 162.371094 496.078125 212.691406 496.078125 274.554688 Z M 496.078125 320.328125 " fill-opacity="1" fill-rule="nonzero"/></g><g clip-path="url(#b965d149ea)"><path fill="#000000" d="M 488.671875 371.320312 C 488.671875 371.320312 424.324219 314.132812 384.171875 415.382812 C 344.019531 314.132812 279.671875 371.320312 279.671875 371.320312 C 195.542969 442.8125 376.019531 596.539062 384.023438 603.289062 L 384.023438 603.546875 C 384.023438 603.546875 384.074219 603.5 384.171875 603.414062 C 384.273438 603.5 384.324219 603.546875 384.324219 603.546875 L 384.324219 603.289062 C 392.328125 596.539062 572.800781 442.816406 488.671875 371.320312 Z M 488.671875 371.320312 " fill-opacity="1" fill-rule="nonzero"/></g><g clip-path="url(#b2ea898461)"><path fill="#ffffff" d="M 453.683594 422.253906 C 453.683594 422.253906 410.773438 384.113281 384 451.640625 C 357.222656 384.113281 314.3125 422.253906 314.3125 422.253906 C 258.214844 469.933594 378.5625 572.457031 383.898438 576.957031 L 383.898438 577.128906 C 383.898438 577.128906 383.933594 577.097656 384 577.042969 C 384.066406 577.097656 384.097656 577.128906 384.097656 577.128906 L 384.097656 576.957031 C 389.4375 572.457031 509.785156 469.933594 453.683594 422.253906 Z M 453.683594 422.253906 " fill-opacity="1" fill-rule="nonzero"/></g></svg>