<svg xmlns="http://www.w3.org/2000/svg" xmlns:xlink="http://www.w3.org/1999/xlink" width="1024" zoomAndPan="magnify" viewBox="0 0 768 767.999994" height="1024" preserveAspectRatio="xMidYMid meet" version="1.0"><defs><clipPath id="b05c9247f1"><path d="M 133.035156 115 L 634 115 L 634 653 L 133.035156 653 Z M 133.035156 115 " clip-rule="nonzero"/></clipPath><clipPath id="5bfd5241bf"><path d="M 201.453125 465.679688 L 273.839844 465.679688 L 273.839844 512.171875 L 201.453125 512.171875 Z M 201.453125 465.679688 " clip-rule="nonzero"/></clipPath><clipPath id="882aeaba70"><path d="M 255.824219 511.800781 C 237.074219 506.101562 229.949219 503.398438 224.101562 500.851562 C 218.773438 498.449219 212.324219 495.300781 209.023438 493.199219 C 207.300781 492.074219 206.398438 491.398438 205.351562 490.273438 C 204.300781 489.148438 203.398438 487.726562 202.726562 486.300781 C 202.125 484.949219 201.675781 483.300781 201.601562 481.800781 C 201.449219 480.226562 201.523438 478.574219 201.898438 477.074219 C 202.273438 475.574219 202.875 474 203.699219 472.726562 C 204.523438 471.375 205.648438 470.175781 206.851562 469.125 C 208.050781 468.148438 209.476562 467.324219 210.898438 466.800781 C 212.324219 466.199219 213.976562 465.898438 215.550781 465.824219 C 217.050781 465.75 218.699219 465.976562 220.199219 466.425781 C 221.699219 466.875 223.199219 467.550781 224.476562 468.449219 C 225.75 469.351562 226.949219 470.550781 227.851562 471.75 C 228.75 473.023438 229.5 474.523438 229.949219 475.949219 C 230.476562 477.449219 230.699219 479.101562 230.699219 480.675781 C 230.625 482.175781 230.324219 483.824219 229.875 485.25 C 229.351562 486.75 228.523438 488.175781 227.550781 489.449219 C 226.574219 490.648438 225.375 491.773438 224.101562 492.601562 C 222.824219 493.5 221.25 494.175781 219.75 494.550781 C 218.25 494.925781 216.601562 495.074219 215.101562 495 C 213.523438 494.851562 211.949219 494.476562 210.449219 493.875 C 209.023438 493.273438 207.675781 492.375 206.476562 491.398438 C 205.273438 490.351562 204.226562 489.074219 203.476562 487.726562 C 202.726562 486.375 202.125 484.875 201.824219 483.300781 C 201.523438 481.800781 201.449219 480.148438 201.601562 478.648438 C 201.824219 477.074219 202.273438 475.5 202.949219 474.074219 C 203.625 472.648438 204.601562 471.300781 205.648438 470.25 C 206.773438 469.125 208.050781 468.148438 209.476562 467.398438 C 210.824219 466.726562 212.398438 466.199219 213.976562 465.976562 C 215.476562 465.75 217.125 465.75 218.699219 466.050781 C 220.199219 466.351562 221.324219 466.800781 223.125 467.625 C 226.273438 469.050781 231.074219 472.425781 235.5 474.601562 C 240.226562 476.925781 245.398438 479.023438 250.574219 480.898438 C 255.824219 482.773438 263.023438 483.75 266.699219 485.925781 C 269.023438 487.273438 270.523438 489.074219 271.648438 490.574219 C 272.398438 491.625 272.773438 492.375 273.074219 493.648438 C 273.601562 495.449219 273.824219 498.523438 273.675781 500.398438 C 273.523438 501.675781 273.300781 502.5 272.699219 503.699219 C 271.875 505.351562 270 507.824219 268.648438 509.101562 C 267.75 510 266.851562 510.449219 265.800781 510.976562 C 264.75 511.425781 263.851562 511.875 262.574219 512.023438 C 260.773438 512.324219 255.824219 511.800781 255.824219 511.800781 " clip-rule="nonzero"/></clipPath><clipPath id="7d8285dfe7"><path d="M 152 151.046875 L 365 151.046875 L 365 602.175781 L 152 602.175781 Z M 152 151.046875 " clip-rule="nonzero"/></clipPath><clipPath id="cdd7e63772"><path d="M 152.324219 269.476562 C 153.375 220.425781 157.648438 191.550781 157.648438 191.398438 C 157.648438 191.324219 158.101562 188.175781 158.25 186.523438 C 158.476562 184.875 158.851562 181.726562 158.851562 181.648438 C 158.851562 181.574219 160.050781 178.574219 160.574219 177.074219 C 161.175781 175.574219 162.300781 172.574219 162.300781 172.5 C 162.375 172.425781 164.175781 169.800781 165.074219 168.449219 C 166.050781 167.101562 167.851562 164.476562 167.925781 164.476562 C 167.925781 164.398438 170.324219 162.300781 171.523438 161.175781 C 172.800781 160.125 175.199219 158.023438 175.199219 157.949219 C 175.273438 157.949219 178.125 156.449219 179.550781 155.699219 C 180.976562 154.949219 183.824219 153.449219 183.898438 153.375 C 183.976562 153.375 187.050781 152.625 188.625 152.25 C 190.199219 151.875 193.351562 151.050781 193.425781 151.050781 C 193.5 151.050781 196.648438 151.050781 198.300781 151.050781 C 199.949219 151.050781 203.101562 151.050781 203.175781 151.050781 C 203.25 151.050781 206.398438 151.875 207.976562 152.25 C 209.550781 152.625 212.625 153.375 212.699219 153.375 C 212.773438 153.449219 215.625 154.949219 217.050781 155.699219 C 218.476562 156.449219 221.324219 157.949219 221.398438 157.949219 C 221.398438 158.023438 223.800781 160.125 225.074219 161.175781 C 226.273438 162.300781 228.675781 164.398438 228.675781 164.476562 C 228.75 164.476562 230.550781 167.101562 231.449219 168.449219 C 232.425781 169.800781 234.226562 172.425781 234.300781 172.5 C 234.300781 172.574219 235.425781 175.574219 236.023438 177.074219 C 236.550781 178.574219 237.75 181.574219 237.75 181.648438 C 237.75 181.726562 238.125 184.875 238.351562 186.523438 C 238.5 188.175781 238.726562 189.375 238.949219 191.398438 C 239.175781 194.476562 239.101562 198.300781 239.699219 203.25 C 240.75 211.800781 243.148438 226.273438 245.773438 237.824219 C 248.476562 249.675781 251.773438 261.375 255.75 273.226562 C 259.949219 285.675781 266.851562 297.449219 270.523438 310.800781 C 274.425781 325.125 276.074219 350.699219 277.726562 356.773438 C 278.101562 358.351562 278.925781 359.550781 278.773438 359.625 C 278.699219 359.625 278.101562 358.574219 278.023438 358.648438 C 277.800781 358.726562 278.851562 361.800781 279.226562 363.449219 C 279.601562 365.023438 280.425781 368.101562 280.425781 368.175781 C 280.425781 368.25 280.425781 371.476562 280.425781 373.125 C 280.5 374.773438 280.5 378 280.5 378.074219 C 280.5 378.148438 279.074219 380.398438 279.601562 381.75 C 280.726562 384.75 289.050781 387.523438 294.300781 392.175781 C 302.023438 399 309.824219 412.875 319.648438 420.375 C 329.324219 427.800781 345.300781 427.5 352.726562 437.023438 C 361.726562 448.5 366.675781 476.398438 364.425781 488.773438 C 362.925781 496.574219 353.476562 504.75 352.648438 506.324219 C 352.574219 506.550781 352.574219 506.476562 352.5 506.699219 C 352.273438 507.375 350.925781 510.976562 350.925781 511.050781 C 350.851562 511.125 346.726562 516.675781 343.5 520.5 C 338.023438 526.949219 328.125 537 320.699219 545.625 C 313.050781 554.324219 306.148438 564 298.351562 572.476562 C 290.699219 580.800781 277.726562 592.949219 274.574219 596.25 C 273.75 597.074219 273.375 597.601562 273.074219 597.824219 C 272.925781 597.898438 272.773438 597.976562 272.773438 597.976562 C 272.699219 598.050781 269.851562 599.023438 268.351562 599.550781 C 266.925781 600.074219 264 601.125 263.925781 601.125 C 263.925781 601.199219 260.851562 601.5 259.273438 601.648438 C 257.699219 601.800781 254.699219 602.101562 254.625 602.101562 C 254.550781 602.101562 251.476562 601.648438 249.976562 601.5 C 248.398438 601.273438 245.324219 600.824219 245.324219 600.824219 C 245.25 600.824219 242.398438 599.625 240.898438 599.101562 C 239.476562 598.5 236.625 597.375 236.550781 597.300781 C 236.550781 597.300781 234 595.5 232.726562 594.601562 C 231.449219 593.699219 228.976562 591.898438 228.898438 591.824219 C 228.898438 591.824219 226.875 589.425781 225.898438 588.300781 C 224.851562 587.101562 222.898438 584.773438 222.824219 584.699219 C 222.824219 584.625 221.398438 581.925781 220.726562 580.5 C 220.050781 579.074219 218.625 576.375 218.625 576.300781 C 218.625 576.226562 217.949219 573.226562 217.574219 571.726562 C 217.199219 570.148438 216.523438 567.226562 216.523438 567.148438 C 216.523438 567.074219 216.601562 564 216.601562 562.425781 C 216.675781 560.851562 216.675781 557.773438 216.675781 557.699219 C 216.75 557.699219 217.5 554.699219 217.949219 553.199219 C 218.324219 551.699219 219.074219 548.699219 219.148438 548.625 C 219.148438 548.625 220.425781 547.425781 220.351562 546.375 C 220.273438 543.75 215.25 537.523438 211.125 533.175781 C 205.800781 527.398438 194.773438 518.324219 190.050781 515.851562 C 188.023438 514.875 187.273438 515.773438 185.324219 514.5 C 179.625 510.824219 163.726562 494.101562 158.398438 482.398438 C 153.601562 471.824219 153.976562 459.898438 153.074219 448.351562 C 152.175781 436.5 153.148438 424.273438 153.148438 412.199219 C 153.148438 400.050781 153.226562 387.898438 153.226562 375.675781 C 153.226562 363.300781 153.375 350.625 153.226562 338.550781 C 153.074219 326.925781 152.476562 315.976562 152.324219 304.5 C 152.175781 292.949219 152.324219 269.476562 152.324219 269.476562 " clip-rule="nonzero"/></clipPath><clipPath id="fb3eb4e54f"><path d="M 173.546875 116 L 625 116 L 625 540.484375 L 173.546875 540.484375 Z M 173.546875 116 " clip-rule="nonzero"/></clipPath><clipPath id="2fb27b554d"><path d="M 173.550781 171.148438 C 174.074219 165.226562 173.773438 163.5 173.925781 162.300781 C 174.074219 161.398438 174.523438 160.875 174.675781 160.125 C 174.824219 159.449219 174.675781 158.773438 174.898438 157.949219 C 175.199219 156.75 176.175781 155.25 176.699219 153.898438 C 177.226562 152.476562 177.523438 150.75 178.050781 149.625 C 178.425781 148.875 179.023438 148.5 179.398438 147.824219 C 179.773438 147.226562 179.851562 146.550781 180.300781 145.800781 C 180.976562 144.824219 182.398438 143.699219 183.300781 142.574219 C 184.273438 141.375 185.101562 139.800781 186 138.976562 C 186.601562 138.375 187.273438 138.226562 187.800781 137.699219 C 188.398438 137.25 188.699219 136.574219 189.375 136.050781 C 190.273438 135.300781 192 134.699219 193.273438 133.949219 C 194.476562 133.199219 195.824219 131.925781 196.875 131.398438 C 197.699219 131.023438 198.375 131.101562 199.050781 130.800781 C 199.726562 130.5 200.175781 129.976562 201 129.75 C 202.125 129.300781 203.925781 129.300781 205.425781 128.925781 C 206.851562 128.625 208.425781 127.875 209.699219 127.726562 C 210.523438 127.648438 211.125 127.875 211.875 127.800781 C 212.625 127.800781 213.226562 127.425781 214.125 127.425781 C 215.324219 127.425781 217.050781 127.949219 218.476562 128.101562 C 219.976562 128.25 222.898438 128.324219 222.898438 128.324219 C 222.898438 128.25 235.125 128.476562 242.550781 128.550781 C 252.375 128.550781 264.675781 129.449219 276.601562 128.625 C 289.800781 127.648438 304.726562 123.898438 318.226562 122.550781 C 330.898438 121.273438 342.898438 121.125 355.199219 120.449219 C 367.5 119.773438 379.5 119.023438 392.101562 118.351562 C 405.375 117.675781 419.773438 116.324219 433.050781 116.476562 C 445.726562 116.625 457.726562 117.300781 470.175781 119.101562 C 482.925781 120.898438 497.398438 125.851562 508.726562 127.425781 C 517.351562 128.625 528.824219 129.226562 531.976562 128.851562 C 532.800781 128.773438 532.875 128.625 533.550781 128.398438 C 534.675781 128.101562 538.199219 127.050781 538.273438 127.050781 C 538.351562 127.050781 541.574219 126.976562 543.226562 126.898438 C 544.875 126.824219 548.101562 126.675781 548.101562 126.75 C 548.398438 126.898438 571.800781 135 578.101562 141.375 C 582.824219 146.101562 584.25 155.550781 586.125 157.949219 C 586.800781 158.773438 587.625 159 587.773438 159.300781 C 587.851562 159.449219 587.851562 159.601562 587.851562 159.601562 C 587.851562 159.675781 587.925781 161.25 588.300781 162.449219 C 588.976562 164.699219 590.625 167.773438 592.800781 171.898438 C 597.226562 179.925781 609.824219 194.550781 614.476562 206.925781 C 618.898438 218.773438 619.199219 231.75 620.699219 244.425781 C 622.273438 257.398438 622.199219 279.074219 623.476562 283.949219 C 623.773438 285.148438 624.226562 284.851562 624.449219 286.050781 C 625.351562 290.625 624.675781 310.199219 622.125 321.601562 C 619.648438 332.851562 613.125 344.773438 609.601562 354.074219 C 606.976562 360.976562 602.101562 369.601562 602.699219 372.226562 C 602.925781 373.125 604.351562 373.648438 604.351562 373.648438 C 604.425781 373.726562 606.226562 376.351562 607.199219 377.699219 C 608.101562 379.050781 609.976562 381.75 609.976562 381.75 C 609.976562 381.824219 611.175781 384.824219 611.699219 386.398438 C 612.300781 387.898438 613.425781 390.898438 613.5 390.976562 C 613.5 391.050781 613.875 394.273438 614.101562 395.925781 C 614.25 397.5 614.625 400.726562 614.625 400.800781 C 614.625 400.800781 614.625 411.75 614.625 418.726562 C 614.625 428.699219 615.375 442.648438 614.699219 454.648438 C 613.949219 466.726562 614.175781 479.476562 610.199219 490.949219 C 606 502.949219 598.949219 517.050781 589.574219 524.851562 C 580.648438 532.273438 567.976562 534.976562 556.199219 537.601562 C 543.75 540.226562 529.726562 539.625 516.75 540 C 504.074219 540.449219 492 540.148438 479.324219 540 C 466.199219 539.851562 452.625 539.25 439.425781 539.175781 C 426.449219 539.023438 413.25 540.523438 400.648438 539.25 C 388.351562 538.050781 364.875 531.976562 364.648438 531.898438 C 364.574219 531.976562 361.425781 531.75 359.773438 531.675781 C 358.125 531.601562 354.898438 531.449219 354.824219 531.375 C 354.75 531.375 351.675781 530.476562 350.101562 529.949219 C 348.523438 529.5 345.449219 528.601562 345.375 528.523438 C 345.375 528.523438 342.601562 526.875 341.175781 526.050781 C 339.75 525.148438 336.976562 523.5 336.976562 523.5 C 336.898438 523.425781 334.574219 521.175781 333.449219 520.050781 C 332.25 518.851562 330 516.601562 329.925781 516.601562 C 329.925781 516.523438 328.199219 513.75 327.375 512.398438 C 326.476562 510.976562 324.824219 508.273438 324.75 508.199219 C 324.75 508.125 323.773438 505.050781 323.25 503.476562 C 322.800781 501.898438 321.824219 498.824219 321.75 498.824219 C 321.75 498.75 321.601562 495.523438 321.449219 493.875 C 321.375 492.226562 321.148438 489 321.148438 489 C 321.148438 488.925781 321.148438 488.925781 321.148438 488.925781 C 321.148438 488.925781 321.675781 485.699219 321.976562 484.125 C 322.273438 482.476562 322.800781 479.324219 322.875 479.25 C 322.875 479.175781 324.148438 476.25 324.824219 474.75 C 325.5 473.25 326.773438 470.324219 326.851562 470.25 C 326.851562 470.175781 328.800781 467.625 329.851562 466.351562 C 330.824219 465.074219 332.773438 462.523438 332.851562 462.449219 C 332.925781 462.375 335.398438 460.425781 336.675781 459.375 C 338.023438 458.398438 340.5 456.375 340.574219 456.300781 C 340.648438 456.300781 343.574219 454.949219 345.074219 454.273438 C 346.5 453.601562 349.425781 452.25 349.5 452.25 C 349.574219 452.175781 352.726562 451.648438 354.375 451.273438 C 355.949219 450.976562 357.148438 450.75 359.175781 450.375 C 362.699219 449.773438 367.875 449.851562 373.5 448.351562 C 382.125 446.175781 395.023438 441.148438 405.148438 436.125 C 415.351562 431.101562 424.648438 424.574219 434.398438 418.273438 C 444.300781 411.898438 455.25 406.050781 464.175781 398.101562 C 473.175781 390.074219 482.324219 380.550781 488.25 370.273438 C 493.949219 360.375 496.5 349.050781 499.574219 337.726562 C 502.875 325.726562 507.074219 313.125 507 300 C 507 285.75 502.425781 267.523438 497.925781 255.375 C 494.476562 246.148438 491.324219 235.5 485.175781 232.425781 C 479.398438 229.574219 471.449219 234 462.976562 235.5 C 451.425781 237.601562 436.199219 242.023438 422.476562 244.648438 C 408.449219 247.351562 393.75 251.324219 379.648438 251.324219 C 366 251.398438 352.199219 246.074219 339.300781 245.101562 C 327.523438 244.273438 316.800781 243.898438 305.324219 245.398438 C 293.25 246.976562 276 249.074219 268.648438 254.925781 C 263.550781 258.898438 262.726562 266.398438 260.25 270.523438 C 258.523438 273.300781 257.398438 275.324219 255.601562 277.351562 C 253.726562 279.449219 251.625 281.324219 249.375 282.898438 C 247.125 284.476562 244.648438 285.75 242.101562 286.800781 C 239.550781 287.773438 236.773438 288.449219 234.074219 288.824219 C 231.375 289.125 228.523438 289.125 225.824219 288.824219 C 223.050781 288.523438 220.273438 287.851562 217.726562 286.875 C 215.175781 285.898438 212.625 284.625 210.375 283.050781 C 208.125 281.550781 206.023438 279.675781 204.148438 277.648438 C 202.351562 275.550781 200.699219 273.226562 199.425781 270.824219 C 198.148438 268.425781 197.101562 265.800781 196.5 263.101562 C 195.824219 260.476562 195.449219 257.625 195.449219 254.925781 C 195.449219 252.148438 195.75 249.375 196.351562 246.675781 C 197.023438 244.050781 199.273438 238.949219 199.273438 238.949219 C 199.273438 238.949219 204.148438 228.074219 207.226562 223.050781 C 210.226562 218.101562 218.175781 210.523438 217.5 209.175781 C 217.273438 208.648438 215.925781 209.023438 214.949219 209.023438 C 213.675781 209.023438 211.726562 209.476562 210.523438 209.324219 C 209.699219 209.25 209.101562 208.875 208.351562 208.726562 C 207.675781 208.648438 207 208.800781 206.175781 208.648438 C 204.976562 208.425781 203.398438 207.523438 201.976562 207.074219 C 200.625 206.625 198.824219 206.398438 197.699219 205.875 C 196.949219 205.574219 196.5 205.050781 195.824219 204.675781 C 195.148438 204.375 194.476562 204.300781 193.726562 203.851562 C 192.75 203.25 191.550781 201.898438 190.351562 201 C 189.148438 200.175781 187.5 199.425781 186.601562 198.601562 C 186 198 185.773438 197.324219 185.25 196.800781 C 184.726562 196.273438 184.125 196.050781 183.523438 195.375 C 182.773438 194.476562 182.023438 192.824219 181.199219 191.625 C 180.375 190.351562 179.023438 189.148438 178.5 188.101562 C 178.050781 187.351562 178.050781 186.675781 177.75 186 C 177.449219 185.324219 176.925781 184.875 176.550781 184.050781 C 176.101562 182.925781 175.949219 181.199219 175.574219 179.773438 C 175.125 178.351562 174.300781 176.773438 174.074219 175.574219 C 173.925781 174.675781 174.148438 174.074219 174.074219 173.324219 C 174 172.574219 173.550781 171.148438 173.550781 171.148438 " clip-rule="nonzero"/></clipPath><clipPath id="0a69c4ccb9"><path d="M 217.722656 242 L 549.304688 242 L 549.304688 476 L 217.722656 476 Z M 217.722656 242 " clip-rule="nonzero"/></clipPath><clipPath id="d8672598da"><path d="M 219.226562 304.273438 C 260.398438 262.949219 274.199219 259.351562 288.675781 255.148438 C 305.101562 250.5 324.976562 247.5 342.75 245.476562 C 359.773438 243.523438 377.550781 243.449219 393.074219 242.925781 C 406.648438 242.550781 418.574219 242.101562 430.949219 242.476562 C 443.101562 242.925781 454.875 244.875 466.800781 245.25 C 478.726562 245.699219 494.550781 245.023438 502.425781 244.949219 C 506.398438 244.875 511.199219 244.800781 511.273438 244.800781 C 511.351562 244.800781 514.351562 245.175781 515.851562 245.398438 C 517.351562 245.550781 520.351562 245.925781 520.425781 245.925781 C 520.5 245.925781 523.273438 247.050781 524.773438 247.574219 C 526.199219 248.101562 528.976562 249.226562 529.050781 249.226562 C 529.125 249.226562 531.601562 250.949219 532.875 251.851562 C 534.148438 252.75 536.625 254.398438 536.699219 254.476562 C 536.699219 254.476562 538.726562 256.800781 539.699219 257.925781 C 540.75 259.050781 542.773438 261.300781 542.773438 261.375 C 542.851562 261.449219 544.199219 264.074219 544.949219 265.5 C 545.625 266.851562 547.050781 269.476562 547.050781 269.550781 C 547.125 269.625 547.800781 272.550781 548.175781 274.050781 C 548.550781 275.550781 549.300781 278.476562 549.300781 278.550781 C 549.300781 278.625 549.300781 281.625 549.300781 283.125 C 549.300781 284.699219 549.300781 287.699219 549.300781 287.773438 C 549.300781 287.851562 548.550781 290.773438 548.175781 292.273438 C 547.800781 293.773438 547.125 296.699219 547.050781 296.699219 C 547.050781 296.773438 545.625 299.476562 544.949219 300.824219 C 544.199219 302.175781 542.851562 304.875 542.773438 304.949219 C 542.773438 304.949219 540.75 307.199219 539.699219 308.398438 C 538.726562 309.523438 536.699219 311.773438 536.699219 311.851562 C 536.699219 311.851562 536.699219 311.851562 536.625 311.851562 C 536.625 311.851562 534.148438 313.574219 532.875 314.476562 C 531.601562 315.300781 529.125 317.023438 529.050781 317.101562 C 529.050781 317.101562 528.898438 317.101562 528.898438 317.175781 C 528.75 317.398438 528.898438 318.449219 528.898438 319.351562 C 528.898438 320.550781 528.898438 323.851562 528.898438 323.851562 C 528.898438 323.925781 528.148438 326.773438 527.773438 328.273438 C 527.398438 329.773438 526.726562 332.625 526.726562 332.699219 C 526.648438 332.699219 525.300781 335.324219 524.625 336.675781 C 523.875 338.023438 522.523438 340.648438 522.523438 340.726562 C 522.449219 340.726562 520.5 342.976562 519.449219 344.101562 C 518.476562 345.226562 516.523438 347.476562 516.449219 347.476562 C 516.449219 347.550781 513.074219 349.875 512.773438 350.101562 C 512.699219 350.101562 512.699219 350.101562 512.699219 350.101562 C 512.550781 350.324219 512.324219 352.050781 512.773438 352.574219 C 513.375 353.25 515.398438 352.949219 516.675781 353.175781 C 518.101562 353.324219 520.949219 353.699219 520.949219 353.773438 C 521.023438 353.773438 523.648438 354.824219 525 355.351562 C 526.351562 355.875 528.976562 356.925781 529.050781 356.925781 C 529.050781 357 529.050781 357 529.050781 357 C 529.050781 357 531.375 358.648438 532.5 359.476562 C 533.699219 360.300781 536.023438 361.949219 536.023438 362.023438 C 536.101562 362.023438 537.898438 364.199219 538.875 365.324219 C 539.773438 366.375 541.648438 368.550781 541.648438 368.625 C 541.726562 368.625 542.925781 371.175781 543.601562 372.449219 C 544.273438 373.726562 545.550781 376.273438 545.550781 376.351562 C 545.550781 376.425781 546.148438 379.125 546.523438 380.550781 C 546.824219 381.976562 547.425781 384.75 547.425781 384.75 C 547.5 384.824219 547.425781 387.675781 547.351562 389.101562 C 547.351562 390.523438 547.273438 393.375 547.273438 393.449219 C 547.273438 393.523438 546.523438 396.226562 546.148438 397.648438 C 545.773438 399 545.101562 401.773438 545.101562 401.773438 C 545.023438 401.851562 543.675781 404.324219 543 405.601562 C 542.25 406.875 540.898438 409.351562 540.898438 409.351562 C 540.898438 409.425781 538.949219 411.523438 537.976562 412.574219 C 537 413.625 535.050781 415.726562 535.050781 415.726562 C 534.976562 415.800781 532.648438 417.375 531.449219 418.125 C 530.25 418.949219 527.851562 420.523438 527.851562 420.523438 C 527.773438 420.601562 525.074219 421.5 523.726562 422.023438 C 522.375 422.476562 519.75 423.449219 519.675781 423.449219 C 519.601562 423.449219 516.824219 423.75 515.398438 423.898438 C 513.898438 424.050781 511.125 424.351562 511.050781 424.351562 C 510.976562 424.351562 462.675781 432.226562 450.976562 433.5 C 446.101562 433.949219 441.449219 433.125 440.699219 434.101562 C 440.398438 434.550781 441.074219 435 441.148438 435.75 C 441.449219 437.476562 441.675781 441.375 441.449219 444.074219 C 441.226562 446.851562 440.625 449.625 439.726562 452.25 C 438.824219 454.875 437.625 457.425781 436.125 459.75 C 434.625 462.074219 432.824219 464.25 430.800781 466.125 C 428.851562 468 426.523438 469.726562 424.125 471.074219 C 421.726562 472.425781 419.101562 473.550781 416.476562 474.300781 C 413.773438 475.050781 411 475.5 408.226562 475.574219 C 405.449219 475.726562 403.648438 475.425781 399.976562 474.898438 C 392.101562 473.699219 376.574219 471.675781 363.898438 467.023438 C 348.300781 461.324219 327 450.601562 314.175781 440.625 C 304.199219 432.824219 292.949219 421.800781 291.074219 415.125 C 290.101562 411.75 293.476562 408.898438 292.574219 406.5 C 291.523438 403.949219 288.074219 403.125 284.625 400.5 C 277.800781 395.324219 264.523438 386.25 254.398438 377.851562 C 243.226562 368.550781 226.648438 359.324219 220.875 346.726562 C 215.25 334.648438 219.226562 304.273438 219.226562 304.273438 " clip-rule="nonzero"/></clipPath><clipPath id="f2c6745ce1"><path d="M 299 259 L 469 259 L 469 424.484375 L 299 424.484375 Z M 299 259 " clip-rule="nonzero"/></clipPath></defs><g clip-path="url(#b05c9247f1)"><path fill="#000000" d="M 633.1875 205.613281 L 633.1875 473.121094 C 633.1875 497.015625 623.699219 519.9375 606.800781 536.816406 C 589.925781 553.71875 567.011719 563.207031 543.144531 563.207031 L 342.070312 563.207031 C 338.128906 563.207031 334.28125 564.582031 331.238281 567.128906 L 234.183594 648.023438 C 228.589844 652.667969 220.828125 653.691406 214.238281 650.597656 C 207.671875 647.523438 203.453125 640.910156 203.453125 633.644531 C 203.453125 633.644531 203.453125 561.234375 203.480469 561.234375 C 186.578125 557.640625 170.925781 549.226562 158.519531 536.816406 C 141.621094 519.9375 132.136719 497.015625 132.136719 473.121094 L 132.136719 205.613281 C 132.136719 181.71875 141.621094 158.820312 158.519531 141.941406 C 175.394531 125.039062 198.3125 115.550781 222.175781 115.550781 L 543.144531 115.550781 C 567.011719 115.550781 589.925781 125.039062 606.800781 141.941406 C 623.699219 158.820312 633.1875 181.71875 633.1875 205.613281 Z M 595.742188 205.613281 C 595.742188 191.65625 590.199219 178.273438 580.339844 168.410156 C 570.453125 158.546875 557.074219 153.003906 543.144531 153.003906 L 222.175781 153.003906 C 208.246094 153.003906 194.867188 158.546875 184.980469 168.410156 C 175.121094 178.273438 169.578125 191.65625 169.578125 205.613281 L 169.578125 473.121094 C 169.578125 487.078125 175.121094 500.460938 184.980469 510.324219 C 194.867188 520.210938 208.246094 525.753906 222.175781 525.753906 C 232.535156 525.753906 240.898438 534.121094 240.898438 544.480469 C 240.898438 544.480469 240.898438 593.667969 240.898438 593.667969 L 307.273438 538.363281 C 317.035156 530.199219 329.367188 525.753906 342.070312 525.753906 L 543.144531 525.753906 C 557.074219 525.753906 570.453125 520.210938 580.339844 510.324219 C 590.199219 500.460938 595.742188 487.078125 595.742188 473.121094 Z M 595.742188 205.613281 " fill-opacity="1" fill-rule="evenodd"/></g><path fill="#000000" d="M 382.660156 243.914062 C 418.257812 208.507812 471.453125 213.003906 500.011719 237.644531 C 531.714844 265.035156 535.707031 319.691406 504.105469 374.472656 C 484.257812 410.925781 434.207031 448.027344 391.996094 472.324219 C 386.230469 475.667969 379.089844 475.667969 373.324219 472.324219 C 331.113281 448.027344 281.0625 410.925781 261.21875 374.472656 C 229.613281 319.691406 233.609375 265.035156 265.3125 237.644531 C 293.867188 213.003906 347.039062 208.507812 382.660156 243.914062 Z M 366.460938 283.914062 C 347.214844 250.65625 309.019531 249.382812 289.800781 265.984375 C 280.589844 273.949219 276.570312 286.132812 276.570312 300.042969 C 276.570312 317.09375 282.484375 336.46875 293.769531 355.921875 C 293.84375 356.097656 293.945312 356.246094 294.019531 356.421875 C 309.644531 385.308594 348.210938 413.648438 382.660156 434.371094 C 417.109375 413.648438 455.675781 385.308594 471.304688 356.421875 C 471.378906 356.246094 471.476562 356.097656 471.554688 355.921875 C 482.835938 336.46875 488.753906 317.09375 488.753906 300.042969 C 488.753906 286.132812 484.734375 273.949219 475.523438 265.984375 C 456.300781 249.382812 418.109375 250.65625 398.863281 283.914062 C 395.515625 289.679688 389.351562 293.25 382.660156 293.25 C 375.972656 293.25 369.804688 289.679688 366.460938 283.914062 Z M 366.460938 283.914062 " fill-opacity="1" fill-rule="evenodd"/><g clip-path="url(#5bfd5241bf)"><g clip-path="url(#882aeaba70)"><path fill="#000000" d="M 198.601562 462.824219 L 276.695312 462.824219 L 276.695312 515.023438 L 198.601562 515.023438 Z M 198.601562 462.824219 " fill-opacity="1" fill-rule="nonzero"/></g></g><g clip-path="url(#7d8285dfe7)"><g clip-path="url(#cdd7e63772)"><path fill="#000000" d="M 149.324219 148.050781 L 367.394531 148.050781 L 367.394531 605.175781 L 149.324219 605.175781 Z M 149.324219 148.050781 " fill-opacity="1" fill-rule="nonzero"/></g></g><g clip-path="url(#fb3eb4e54f)"><g clip-path="url(#2fb27b554d)"><path fill="#000000" d="M 170.550781 113.476562 L 627.523438 113.476562 L 627.523438 542.730469 L 170.550781 542.730469 Z M 170.550781 113.476562 " fill-opacity="1" fill-rule="nonzero"/></g></g><g clip-path="url(#0a69c4ccb9)"><g clip-path="url(#d8672598da)"><path fill="#000000" d="M 216.226562 239.476562 L 552.300781 239.476562 L 552.300781 478.246094 L 216.226562 478.246094 Z M 216.226562 239.476562 " fill-opacity="1" fill-rule="nonzero"/></g></g><g clip-path="url(#f2c6745ce1)"><path fill="#ffffff" d="M 453.683594 269.988281 C 453.683594 269.988281 410.773438 231.847656 384 299.375 C 357.222656 231.847656 314.3125 269.988281 314.3125 269.988281 C 258.214844 317.667969 378.5625 420.191406 383.898438 424.691406 L 383.898438 424.863281 C 383.898438 424.863281 383.933594 424.832031 384 424.777344 C 384.066406 424.832031 384.097656 424.863281 384.097656 424.863281 L 384.097656 424.691406 C 389.4375 420.191406 509.785156 317.667969 453.683594 269.988281 Z M 453.683594 269.988281 " fill-opacity="1" fill-rule="nonzero"/></g></svg>