<svg xmlns="http://www.w3.org/2000/svg" xmlns:xlink="http://www.w3.org/1999/xlink" width="1024" zoomAndPan="magnify" viewBox="0 0 768 767.999994" height="1024" preserveAspectRatio="xMidYMid meet" version="1.0"><defs><clipPath id="6e6f49af0d"><path d="M 294 137.191406 L 488 137.191406 L 488 181 L 294 181 Z M 294 137.191406 " clip-rule="nonzero"/></clipPath><clipPath id="a4ab246f64"><path d="M 90.148438 201 L 690.898438 201 L 690.898438 288 L 90.148438 288 Z M 90.148438 201 " clip-rule="nonzero"/></clipPath><clipPath id="9b8d1f033c"><path d="M 90.148438 308 L 258 308 L 258 567 L 90.148438 567 Z M 90.148438 308 " clip-rule="nonzero"/></clipPath><clipPath id="a4066d78ed"><path d="M 523 308 L 690.898438 308 L 690.898438 567 L 523 567 Z M 523 308 " clip-rule="nonzero"/></clipPath><clipPath id="eba6c4ae12"><path d="M 90.148438 587 L 690.898438 587 L 690.898438 630.691406 L 90.148438 630.691406 Z M 90.148438 587 " clip-rule="nonzero"/></clipPath><clipPath id="8237cd8c3e"><path d="M 275.019531 310.125 L 498.230469 310.125 L 498.230469 537 L 275.019531 537 Z M 275.019531 310.125 " clip-rule="nonzero"/></clipPath><clipPath id="e9e5f1fdf5"><path d="M 275.023438 401.101562 C 293.398438 356.925781 295.949219 345.824219 304.199219 337.050781 C 314.101562 326.550781 332.925781 315.449219 346.949219 311.625 C 358.648438 308.476562 369.75 311.851562 381.601562 311.925781 C 393.976562 312.074219 407.023438 311.550781 419.625 312.226562 C 432.074219 312.976562 446.101562 311.101562 456.601562 316.273438 C 467.25 321.523438 476.101562 333.226562 483 343.726562 C 489.898438 354.300781 495.976562 367.574219 497.699219 379.648438 C 499.273438 391.125 496.199219 402.75 493.800781 414.226562 C 491.324219 426.074219 488.773438 438.898438 483 449.773438 C 477.074219 460.800781 466.648438 470.175781 458.398438 479.699219 C 450.523438 488.773438 442.273438 498.449219 434.699219 505.726562 C 428.550781 511.648438 418.800781 518.625 416.925781 520.726562 C 416.476562 521.175781 416.550781 521.25 416.25 521.625 C 415.726562 522.449219 413.925781 525.148438 413.851562 525.148438 C 413.851562 525.226562 411.75 527.023438 410.699219 528 C 409.648438 528.976562 407.625 530.773438 407.550781 530.851562 C 407.476562 530.851562 405.074219 532.199219 403.800781 532.875 C 402.523438 533.476562 400.125 534.824219 400.050781 534.824219 C 399.976562 534.824219 397.273438 535.574219 395.925781 535.875 C 394.574219 536.25 391.875 536.925781 391.800781 536.925781 C 391.800781 536.925781 389.023438 536.925781 387.601562 537 C 386.175781 537 383.398438 537 383.324219 537 C 383.25 537 380.550781 536.324219 379.199219 536.023438 C 377.851562 535.648438 375.148438 535.050781 375.074219 535.050781 C 375 534.976562 372.523438 533.699219 371.324219 533.101562 C 370.050781 532.425781 367.574219 531.148438 367.5 531.148438 C 367.5 531.074219 365.398438 529.273438 364.351562 528.375 C 363.226562 527.398438 361.199219 525.601562 361.125 525.523438 C 361.050781 525.523438 359.476562 523.273438 358.648438 522.074219 C 357.898438 520.949219 356.25 518.625 356.25 518.625 C 356.25 518.550781 355.199219 516 354.75 514.648438 C 354.226562 513.300781 353.175781 510.75 353.175781 510.675781 C 353.175781 510.601562 352.800781 507.898438 352.648438 506.476562 C 352.425781 505.050781 352.050781 502.273438 352.125 502.273438 C 352.199219 502.125 354.824219 498.300781 354.75 497.101562 C 354.675781 496.351562 354.074219 495.601562 353.398438 495.300781 C 352.351562 495 351.074219 496.574219 348.898438 496.574219 C 342.824219 496.425781 324.375 493.574219 314.925781 486 C 303.300781 476.699219 295.125 454.574219 288.300781 439.574219 C 282.300781 426.449219 275.023438 401.101562 275.023438 401.101562 M 360.074219 417.300781 C 368.550781 430.574219 362.476562 418.5 360.976562 417.449219 C 360.601562 417.226562 360.074219 417.300781 360.074219 417.300781 " clip-rule="nonzero"/></clipPath><clipPath id="23d6404203"><path d="M 306 355 L 476 355 L 476 520.558594 L 306 520.558594 Z M 306 355 " clip-rule="nonzero"/></clipPath></defs><g clip-path="url(#6e6f49af0d)"><path fill="#000000" d="M 294.09375 180.113281 L 487.242188 180.113281 L 487.242188 147.921875 C 487.242188 142.011719 482.421875 137.191406 476.511719 137.191406 L 304.824219 137.191406 C 298.914062 137.191406 294.09375 142.011719 294.09375 147.921875 L 294.09375 180.113281 " fill-opacity="1" fill-rule="nonzero"/></g><path fill="#000000" d="M 573.085938 180.113281 L 637.472656 180.113281 L 637.472656 169.382812 C 637.472656 163.472656 632.652344 158.652344 626.742188 158.652344 L 583.816406 158.652344 C 577.90625 158.652344 573.085938 163.472656 573.085938 169.382812 L 573.085938 180.113281 " fill-opacity="1" fill-rule="nonzero"/><g clip-path="url(#a4ab246f64)"><path fill="#000000" d="M 540.894531 223.035156 C 540.894531 217.125 545.714844 212.304688 551.625 212.304688 L 658.933594 212.304688 C 664.84375 212.304688 669.664062 217.125 669.664062 223.035156 L 669.664062 265.960938 C 669.664062 271.871094 664.84375 276.691406 658.933594 276.691406 L 551.625 276.691406 C 545.714844 276.691406 540.894531 271.871094 540.894531 265.960938 Z M 90.210938 212.304688 L 90.210938 287.421875 L 257.417969 287.421875 C 292.164062 254.265625 339.070312 233.765625 390.667969 233.765625 C 442.265625 233.765625 489.171875 254.265625 523.917969 287.421875 L 691.125 287.421875 L 691.125 212.304688 C 691.125 206.394531 686.304688 201.574219 680.394531 201.574219 L 100.941406 201.574219 C 95.03125 201.574219 90.210938 206.394531 90.210938 212.304688 " fill-opacity="1" fill-rule="nonzero"/></g><path fill="#000000" d="M 390.667969 497.589844 L 458.949219 429.308594 C 465.027344 423.230469 468.339844 415.140625 468.339844 406.546875 C 468.339844 397.910156 465.027344 389.820312 458.949219 383.742188 C 446.417969 371.210938 425.960938 371.253906 413.34375 383.785156 L 398.253906 398.875 C 394.0625 403.066406 387.273438 403.066406 383.082031 398.875 L 367.949219 383.742188 C 361.664062 377.5 353.40625 374.355469 345.148438 374.355469 C 336.890625 374.355469 328.632812 377.5 322.386719 383.742188 C 316.308594 389.820312 312.996094 397.910156 312.996094 406.546875 C 312.996094 415.140625 316.308594 423.230469 322.386719 429.308594 L 390.667969 497.589844 " fill-opacity="1" fill-rule="nonzero"/><path fill="#000000" d="M 143.867188 180.113281 L 208.25 180.113281 L 208.25 169.382812 C 208.25 163.472656 203.429688 158.652344 197.519531 158.652344 L 154.597656 158.652344 C 148.6875 158.652344 143.867188 163.472656 143.867188 169.382812 L 143.867188 180.113281 " fill-opacity="1" fill-rule="nonzero"/><path fill="#000000" d="M 648.203125 233.765625 L 562.355469 233.765625 L 562.355469 255.230469 L 648.203125 255.230469 L 648.203125 233.765625 " fill-opacity="1" fill-rule="nonzero"/><g clip-path="url(#9b8d1f033c)"><path fill="#000000" d="M 238.09375 308.882812 L 90.210938 308.882812 L 90.210938 566.414062 L 257.417969 566.414062 C 220.570312 531.203125 197.519531 481.742188 197.519531 426.917969 C 197.519531 382.484375 212.734375 341.617188 238.09375 308.882812 " fill-opacity="1" fill-rule="nonzero"/></g><g clip-path="url(#a4066d78ed)"><path fill="#000000" d="M 691.125 308.882812 L 543.242188 308.882812 C 568.601562 341.617188 583.816406 382.484375 583.816406 426.917969 C 583.816406 481.742188 560.765625 531.203125 523.917969 566.414062 L 691.125 566.414062 L 691.125 308.882812 " fill-opacity="1" fill-rule="nonzero"/></g><g clip-path="url(#eba6c4ae12)"><path fill="#000000" d="M 100.941406 630.796875 L 680.394531 630.796875 C 686.304688 630.796875 691.125 625.976562 691.125 620.066406 L 691.125 587.875 L 497.21875 587.875 C 466.664062 608.164062 430.027344 620.066406 390.667969 620.066406 C 351.308594 620.066406 314.675781 608.164062 284.117188 587.875 L 90.210938 587.875 L 90.210938 620.066406 C 90.210938 625.976562 95.03125 630.796875 100.941406 630.796875 " fill-opacity="1" fill-rule="nonzero"/></g><path fill="#000000" d="M 307.214844 368.570312 C 328.085938 347.738281 362.125 347.695312 383.082031 368.527344 L 390.667969 376.113281 L 398.214844 368.570312 C 419.214844 347.695312 453.25 347.695312 474.125 368.570312 C 484.226562 378.714844 489.800781 392.167969 489.800781 406.546875 C 489.800781 420.882812 484.226562 434.378906 474.125 444.480469 L 398.253906 520.347656 C 396.160156 522.445312 393.433594 523.492188 390.667969 523.492188 C 387.902344 523.492188 385.175781 522.445312 383.082031 520.347656 L 307.214844 444.480469 C 297.109375 434.378906 291.535156 420.882812 291.535156 406.546875 C 291.535156 392.167969 297.109375 378.714844 307.214844 368.570312 Z M 390.667969 555.683594 C 461.675781 555.683594 519.433594 497.921875 519.433594 426.917969 C 519.433594 355.910156 461.675781 298.152344 390.667969 298.152344 C 319.664062 298.152344 261.902344 355.910156 261.902344 426.917969 C 261.902344 497.921875 319.664062 555.683594 390.667969 555.683594 " fill-opacity="1" fill-rule="nonzero"/><path fill="#000000" d="M 390.667969 276.691406 C 473.496094 276.691406 540.894531 344.089844 540.894531 426.917969 C 540.894531 509.742188 473.496094 577.144531 390.667969 577.144531 C 307.839844 577.144531 240.441406 509.742188 240.441406 426.917969 C 240.441406 344.089844 307.839844 276.691406 390.667969 276.691406 Z M 390.667969 598.605469 C 485.316406 598.605469 562.355469 521.5625 562.355469 426.917969 C 562.355469 332.269531 485.316406 255.230469 390.667969 255.230469 C 296.019531 255.230469 218.980469 332.269531 218.980469 426.917969 C 218.980469 521.5625 296.019531 598.605469 390.667969 598.605469 " fill-opacity="1" fill-rule="nonzero"/><g clip-path="url(#8237cd8c3e)"><g clip-path="url(#e9e5f1fdf5)"><path fill="#000000" d="M 272.023438 308.625 L 500.480469 308.625 L 500.480469 540.074219 L 272.023438 540.074219 Z M 272.023438 308.625 " fill-opacity="1" fill-rule="nonzero"/></g></g><g clip-path="url(#23d6404203)"><path fill="#ffffff" d="M 460.359375 366.0625 C 460.359375 366.0625 417.445312 327.921875 390.671875 395.449219 C 363.898438 327.921875 320.984375 366.0625 320.984375 366.0625 C 264.886719 413.742188 385.234375 516.265625 390.570312 520.769531 L 390.570312 520.9375 C 390.570312 520.9375 390.609375 520.910156 390.671875 520.851562 C 390.738281 520.910156 390.773438 520.9375 390.773438 520.9375 L 390.773438 520.769531 C 396.109375 516.265625 516.457031 413.742188 460.359375 366.0625 Z M 460.359375 366.0625 " fill-opacity="1" fill-rule="nonzero"/></g></svg>