<svg xmlns="http://www.w3.org/2000/svg" xmlns:xlink="http://www.w3.org/1999/xlink" width="1024" zoomAndPan="magnify" viewBox="0 0 768 767.999994" height="1024" preserveAspectRatio="xMidYMid meet" version="1.0"><defs><clipPath id="edcadb34bd"><path d="M 107 116 L 617 116 L 617 687 L 107 687 Z M 107 116 " clip-rule="nonzero"/></clipPath><clipPath id="c1c5c1fd84"><path d="M 310.785156 34.710938 L 755.066406 518.71875 L 521.347656 733.25 L 77.066406 249.242188 Z M 310.785156 34.710938 " clip-rule="nonzero"/></clipPath><clipPath id="0ade91c2a5"><path d="M 754.875 518.511719 L 310.59375 34.503906 L 76.878906 249.035156 L 521.160156 733.042969 Z M 754.875 518.511719 " clip-rule="nonzero"/></clipPath><clipPath id="c8dfacc0ba"><path d="M 754.875 518.511719 L 310.59375 34.503906 L 76.878906 249.035156 L 521.160156 733.042969 Z M 754.875 518.511719 " clip-rule="nonzero"/></clipPath></defs><g clip-path="url(#edcadb34bd)"><g clip-path="url(#c1c5c1fd84)"><g clip-path="url(#0ade91c2a5)"><g clip-path="url(#c8dfacc0ba)"><path fill="#000000" d="M 542.300781 623.898438 C 559.640625 638.25 577.636719 651.707031 596.496094 663.835938 C 599.429688 661.015625 602.179688 657.941406 604.734375 654.613281 C 619.546875 635.257812 619.789062 608.089844 605.351562 587.550781 C 585.40625 559.171875 553.527344 511.449219 537.699219 472.015625 C 527.714844 470.660156 517.710938 469.304688 507.722656 467.949219 C 505.101562 467.59375 502.476562 467.238281 499.855469 466.878906 C 496.546875 466.4375 493.671875 465.460938 491.335938 462.914062 C 489.300781 460.699219 487.851562 457.140625 488.109375 454.085938 C 488.628906 447.957031 494.09375 441.421875 500.894531 442.351562 C 510.335938 443.636719 519.785156 444.910156 529.226562 446.195312 C 525.679688 433.082031 522.910156 419.628906 520.648438 406.1875 C 505.859375 404.175781 491.089844 402.167969 476.308594 400.167969 C 473.683594 399.8125 471.0625 399.453125 468.4375 399.097656 C 465.132812 398.65625 462.253906 397.675781 459.917969 395.132812 C 457.882812 392.914062 456.433594 389.359375 456.695312 386.304688 C 457.210938 380.175781 462.679688 373.640625 469.476562 374.570312 C 485.292969 376.726562 501.109375 378.867188 516.933594 381.015625 C 515.222656 367.921875 513.832031 355.078125 512.507812 342.773438 C 494.125 340.28125 475.734375 337.78125 457.351562 335.289062 C 454.726562 334.933594 452.101562 334.578125 449.480469 334.21875 C 446.171875 333.777344 443.296875 332.800781 440.960938 330.253906 C 438.925781 328.039062 437.476562 324.480469 437.734375 321.425781 C 438.253906 315.296875 443.722656 308.761719 450.519531 309.691406 C 469.011719 312.207031 487.5 314.710938 505.984375 317.21875 C 507.238281 317.382812 508.488281 317.558594 509.742188 317.726562 C 507.445312 298.542969 504.8125 281.628906 500.582031 268.605469 C 487.160156 227.195312 422.214844 251.234375 381.941406 222.703125 C 341.667969 194.171875 347.035156 140.46875 320.863281 121.285156 C 294.6875 102.101562 254.054688 143.144531 194.671875 163.679688 C 184.480469 167.222656 175.097656 171.433594 166.535156 175.992188 C 179.140625 177.386719 191.597656 180.074219 203.667969 184.457031 C 227.3125 193.03125 248.207031 207.21875 265.910156 225.011719 C 302.511719 261.800781 324.96875 310.789062 346.296875 357.335938 C 357.621094 382.070312 368.683594 406.941406 381.023438 431.207031 C 387.132812 443.21875 393.554688 455.085938 400.511719 466.640625 C 403.925781 472.316406 407.472656 477.925781 411.160156 483.417969 C 412.042969 484.75 412.953125 486.070312 413.863281 487.390625 C 414.03125 487.632812 414.164062 487.8125 414.25 487.949219 C 414.589844 488.4375 414.941406 488.917969 415.285156 489.386719 C 417.234375 492.109375 419.210938 494.789062 421.246094 497.433594 C 441.328125 523.597656 463.195312 548.503906 486.277344 572.058594 C 496.164062 582.132812 506.296875 591.949219 516.691406 601.488281 C 521.46875 605.878906 526.304688 610.195312 531.195312 614.460938 C 533.265625 616.269531 535.367188 618.070312 537.472656 619.863281 C 538.550781 620.761719 539.625 621.683594 540.703125 622.585938 C 541.160156 622.96875 541.761719 623.699219 542.300781 623.917969 C 540.9375 622.78125 540.621094 622.515625 541.359375 623.125 C 541.675781 623.371094 541.988281 623.636719 542.300781 623.898438 Z M 131.375 199.601562 C 132.214844 199.527344 133.023438 199.476562 133.832031 199.429688 C 137.378906 199.257812 140.941406 199.183594 144.5 199.179688 C 151.214844 199.203125 157.945312 199.570312 164.613281 200.335938 C 166.527344 200.558594 168.4375 200.796875 170.347656 201.09375 C 171.085938 201.203125 171.835938 201.335938 172.574219 201.441406 C 172.664062 201.464844 172.75 201.480469 172.851562 201.492188 C 175.882812 202.078125 178.894531 202.703125 181.890625 203.464844 C 187.664062 204.90625 193.359375 206.6875 198.917969 208.824219 C 200.542969 209.453125 202.160156 210.109375 203.769531 210.792969 C 204.296875 211.019531 204.835938 211.257812 205.363281 211.484375 C 205.402344 211.503906 205.417969 211.507812 205.457031 211.527344 C 207.8125 212.699219 210.191406 213.8125 212.515625 215.066406 C 217.632812 217.808594 222.585938 220.875 227.332031 224.203125 C 229.761719 225.898438 232.136719 227.675781 234.476562 229.503906 C 235.132812 230.027344 239.035156 232.6875 235.898438 230.609375 C 237.035156 231.363281 238.09375 232.476562 239.125 233.386719 C 247.886719 241.109375 255.851562 249.707031 263.152344 258.824219 C 265.09375 261.25 266.988281 263.703125 268.832031 266.199219 C 269.722656 267.398438 270.609375 268.597656 271.46875 269.804688 C 271.898438 270.410156 272.320312 271.023438 272.757812 271.617188 C 276.171875 276.617188 279.488281 281.683594 282.664062 286.851562 C 289.429688 297.847656 295.632812 309.183594 301.523438 320.683594 C 313.707031 344.449219 324.554688 368.859375 335.667969 393.125 C 346.886719 417.625 358.316406 442.066406 371.523438 465.570312 C 386.167969 491.609375 403.601562 515.449219 422.730469 538.367188 C 458.394531 581.117188 498.175781 620.5 541.917969 654.960938 C 552.386719 663.203125 563.113281 671.457031 574.269531 678.996094 C 548.476562 690.757812 517.042969 688.710938 491.503906 671.152344 C 471.199219 657.195312 440.300781 629.703125 410.34375 600.152344 C 294.078125 485.480469 312.484375 457.152344 223.726562 381.910156 C 157.484375 325.769531 122.972656 267.746094 109.722656 241.925781 C 105.378906 233.449219 106.695312 223.324219 113.070312 216.613281 C 117.640625 211.816406 123.769531 205.886719 131.375 199.601562 Z M 131.375 199.601562 " fill-opacity="1" fill-rule="nonzero"/></g></g></g></g></svg>